<?xml version="1.0" encoding="UTF-8" standalone="no"?>
<svg
   height="180"
   viewBox="0 -960 4320 4320"
   width="180"
   version="1.1"
   id="svg4"
   sodipodi:docname="dog-megaphone.svg"
   inkscape:version="1.2.2 (732a01da63, 2022-12-09)"
   xmlns:inkscape="http://www.inkscape.org/namespaces/inkscape"
   xmlns:sodipodi="http://sodipodi.sourceforge.net/DTD/sodipodi-0.dtd"
   xmlns="http://www.w3.org/2000/svg"
   xmlns:svg="http://www.w3.org/2000/svg">
  <defs
     id="defs8" />
  <sodipodi:namedview
     id="namedview6"
     pagecolor="#ffffff"
     bordercolor="#000000"
     borderopacity="0.25"
     inkscape:showpageshadow="2"
     inkscape:pageopacity="0.0"
     inkscape:pagecheckerboard="0"
     inkscape:deskcolor="#d1d1d1"
     showgrid="false"
     inkscape:zoom="2.590625"
     inkscape:cx="104.60796"
     inkscape:cy="80.675513"
     inkscape:window-width="1920"
     inkscape:window-height="1027"
     inkscape:window-x="-8"
     inkscape:window-y="-8"
     inkscape:window-maximized="1"
     inkscape:current-layer="svg4" />
  <path
     d="M 3459.9857,1286.7936 V 938.3451 h 801.4377 v 348.4485 z m 257.8527,1498.3451 -644.6344,-480.8637 209.0712,-278.7598 644.6343,480.8637 z M 3292.7287,196.13725 3083.6575,-82.62257 3717.8384,-560 3926.9095,-281.24018 Z M 742.06045,2576.0675 V 1739.7829 H 428.44847 q -144.60408,0 -246.52627,-101.9222 Q 80,1535.9385 80,1391.3344 V 833.8043 Q 80,689.20024 181.9222,587.27804 283.84439,485.35585 428.44847,485.35585 H 1334.427 L 2379.7829,-141.85766 V 2366.9964 L 1334.427,1739.7829 h -243.9181 v 836.2846 z M 2588.854,1812.9578 V 412.18094 q 141.1231,125.4427 227.3649,305.76659 86.2419,180.32387 86.2419,394.62187 0,214.2979 -86.2419,394.6218 -86.2418,180.3239 -227.3649,305.7666 z"
     id="path2"
     style="fill:#fe7f4c;fill-opacity:1;stroke-width:5.22678" />
</svg>
