<?xml version="1.0" encoding="UTF-8" standalone="no"?>
<svg
   height="180"
   viewBox="0 -960 4320 4320"
   width="180"
   version="1.1"
   id="svg4"
   sodipodi:docname="dog-vaccine.svg"
   inkscape:version="1.2.2 (732a01da63, 2022-12-09)"
   xmlns:inkscape="http://www.inkscape.org/namespaces/inkscape"
   xmlns:sodipodi="http://sodipodi.sourceforge.net/DTD/sodipodi-0.dtd"
   xmlns="http://www.w3.org/2000/svg"
   xmlns:svg="http://www.w3.org/2000/svg">
  <defs
     id="defs8" />
  <sodipodi:namedview
     id="namedview6"
     pagecolor="#ffffff"
     bordercolor="#000000"
     borderopacity="0.25"
     inkscape:showpageshadow="2"
     inkscape:pageopacity="0.0"
     inkscape:pagecheckerboard="0"
     inkscape:deskcolor="#d1d1d1"
     showgrid="false"
     inkscape:zoom="2.590625"
     inkscape:cx="21.616405"
     inkscape:cy="98.431845"
     inkscape:window-width="1920"
     inkscape:window-height="1027"
     inkscape:window-x="-8"
     inkscape:window-y="-8"
     inkscape:window-maximized="1"
     inkscape:current-layer="svg4" />
  <path
     d="M 1386.911,3302.895 1046.8416,3047.8405 V 2146.6459 H 774.78003 q -137.72947,0 -238.89942,-101.1699 -101.16995,-101.17 -101.16995,-238.8994 V 208.23116 h -34.00898 q -73.11394,0 -121.57431,-48.46037 Q 230.667,111.31042 230.667,38.196474 q 0,-73.113945 48.46037,-121.574314 48.46037,-48.46037 121.57431,-48.46037 H 1046.8416 V -539.93063 H 910.81084 q -73.11395,0 -121.57432,-48.46037 -48.46037,-48.46037 -48.46037,-121.57432 0,-73.11394 48.46037,-121.57431 Q 837.69689,-880 910.81084,-880 h 612.13096 q 73.114,0 121.5743,48.46037 48.4604,48.46037 48.4604,121.57431 0,73.11395 -48.4604,121.57432 -48.4603,48.46037 -121.5743,48.46037 H 1386.911 v 408.09242 h 646.14 q 73.1139,0 121.5743,48.46037 48.4604,48.460369 48.4604,121.574314 0,73.113946 -48.4604,121.574316 -48.4604,48.46037 -121.5743,48.46037 h -34.009 V 1806.5766 q 0,137.7294 -101.17,238.8994 -101.1699,101.1699 -238.8994,101.1699 H 1386.911 Z M 774.78003,1806.5766 h 884.19257 v -374.0835 h -391.0854 q -47.6084,0 -83.3161,-35.7076 -35.7076,-35.7077 -35.7076,-83.3161 0,-47.6085 35.7076,-83.3162 35.7077,-35.7076 83.3161,-35.7076 h 391.0854 V 820.36214 h -391.0854 q -47.6084,0 -83.3161,-35.70764 -35.7076,-35.70764 -35.7076,-83.31613 0,-47.60849 35.7076,-83.31613 35.7077,-35.70764 83.3161,-35.70764 h 391.0854 V 208.23116 H 774.78003 Z M 2849.2256,3200.8732 q -137.7295,0 -238.8994,-101.1699 -101.17,-101.17 -101.17,-238.8994 V 1514.1157 q 0,-158.1338 44.2061,-246.5562 44.2112,-88.4172 107.1229,-159.8325 83.3213,-91.8196 119.0289,-143.68241 35.7076,-51.8628 35.7076,-109.67347 V 718.34031 h -34.0089 q -73.114,0 -121.5744,-48.46037 -48.4603,-48.46037 -48.4603,-121.57431 0,-73.11395 50.159,-121.57432 50.159,-48.46037 119.8757,-48.46037 h 1020.2183 q 73.1139,0 121.5743,48.46037 48.4603,48.46037 48.4603,121.57432 0,73.11394 -48.4603,121.57431 -48.4604,48.46037 -121.5743,48.46037 h -34.009 v 136.03081 q 0,54.41334 42.5074,115.62644 42.5125,61.21314 127.5273,153.03274 62.9168,71.4153 99.4713,154.7314 36.5595,83.3161 36.5595,236.354 v 1346.6882 q 0,137.7294 -101.17,238.8994 -101.1699,101.1699 -238.8994,101.1699 z m 0,-1564.3313 h 884.1926 v -122.4262 q 0,-86.7186 -49.3122,-153.0379 -49.3123,-66.3141 -108.8216,-139.4281 -69.7166,-86.7185 -108.8267,-168.336 -39.105,-81.61748 -39.105,-198.94258 V 718.34031 h -272.0616 v 136.03081 q 0,112.22401 -36.5595,193.84148 -36.5544,81.6175 -106.2711,168.336 -59.5144,73.114 -111.3721,141.9787 -51.8628,68.8698 -51.8628,155.5884 z m 0,1224.262 h 884.1926 v -374.0835 h -884.1926 z"
     id="path2"
     style="fill:#fe7f4c;fill-opacity:1;stroke-width:5.10109" />
</svg>
