<?xml version="1.0" encoding="UTF-8" standalone="no"?>
<svg
   height="180"
   viewBox="0 -960 4320 4320"
   width="180"
   version="1.1"
   id="svg4"
   sodipodi:docname="dog-alert.svg"
   inkscape:version="1.2.2 (732a01da63, 2022-12-09)"
   xmlns:inkscape="http://www.inkscape.org/namespaces/inkscape"
   xmlns:sodipodi="http://sodipodi.sourceforge.net/DTD/sodipodi-0.dtd"
   xmlns="http://www.w3.org/2000/svg"
   xmlns:svg="http://www.w3.org/2000/svg">
  <defs
     id="defs8" />
  <sodipodi:namedview
     id="namedview6"
     pagecolor="#ffffff"
     bordercolor="#000000"
     borderopacity="0.25"
     inkscape:showpageshadow="2"
     inkscape:pageopacity="0.0"
     inkscape:pagecheckerboard="0"
     inkscape:deskcolor="#d1d1d1"
     showgrid="false"
     showguides="false"
     inkscape:zoom="3.663697"
     inkscape:cx="84.341036"
     inkscape:cy="93.621279"
     inkscape:window-width="1920"
     inkscape:window-height="1027"
     inkscape:window-x="-8"
     inkscape:window-y="-8"
     inkscape:window-maximized="1"
     inkscape:current-layer="svg4" />
  <path
     d="M 627.67383,3287.7173 V 1712.5744 L 1628.4526,2713.3531 q 240.1812,-254.1121 427.2812,-547.3798 187.1053,-293.2729 187.1053,-644.8484 0,-271.51 -106.1729,-519.5286 Q 2030.4986,753.57767 1840.7878,563.86169 L 1208.9877,-67.93316 h 929.4277 l 821.5056,-821.50562 403.79,403.79 q 201.8977,201.8976 309.804,462.097886 107.9117,260.200284 111.3944,547.379754 -3.4827,287.17947 -111.3944,547.38494 -107.9063,260.2003 -309.804,462.098 l -438.6013,438.6013 V 3287.7173 Z M 1621.4871,2213.8383 559.79504,1152.1463 q -53.9532,-53.9585 -81.80441,-123.576 -27.84595,-69.61753 -27.84595,-146.20048 0,-76.5829 27.84595,-147.06721 27.85121,-70.48952 81.80441,-124.44793 L 974.02792,191.40035 1597.1186,809.26962 q 142.723,142.72299 220.1727,326.34028 77.4497,183.6226 77.4497,385.515 0,191.4547 -69.6175,371.5946 -69.6175,180.1398 -203.6364,321.1188 z"
     id="path2"
     style="fill:#fe7f4c;fill-opacity:1;stroke-width:5.22146" />
</svg>
