<?xml version="1.0" encoding="UTF-8" standalone="no"?>
<svg
   height="40"
   viewBox="0 -960 960 960"
   width="40"
   version="1.1"
   id="svg4"
   sodipodi:docname="dog-megaphone.svg"
   inkscape:version="1.2.2 (732a01da63, 2022-12-09)"
   xmlns:inkscape="http://www.inkscape.org/namespaces/inkscape"
   xmlns:sodipodi="http://sodipodi.sourceforge.net/DTD/sodipodi-0.dtd"
   xmlns="http://www.w3.org/2000/svg"
   xmlns:svg="http://www.w3.org/2000/svg">
  <defs
     id="defs8" />
  <sodipodi:namedview
     id="namedview6"
     pagecolor="#ffffff"
     bordercolor="#000000"
     borderopacity="0.25"
     inkscape:showpageshadow="2"
     inkscape:pageopacity="0.0"
     inkscape:pagecheckerboard="0"
     inkscape:deskcolor="#d1d1d1"
     showgrid="false"
     inkscape:zoom="20.725"
     inkscape:cx="17.997587"
     inkscape:cy="19.975875"
     inkscape:window-width="1920"
     inkscape:window-height="1009"
     inkscape:window-x="-8"
     inkscape:window-y="-8"
     inkscape:window-maximized="1"
     inkscape:current-layer="svg4" />
  <path
     d="M726.667-446.667v-66.666H880v66.666H726.667ZM776-160l-123.333-92 40-53.333 123.333 92L776-160Zm-81.333-495.334-40-53.333L776-800l40 53.333-121.333 91.333ZM206.667-200v-160h-60.001Q119-360 99.5-379.5 80-399 80-426.666v-106.668Q80-561 99.5-580.5 119-600 146.666-600H320l200-120v480L320-360h-46.667v160h-66.666ZM560-346v-268q27 24 43.5 58.5T620-480q0 41-16.5 75.5T560-346Z"
     id="path2"
     style="fill:#fe7f4c;fill-opacity:1" />
</svg>
