<?xml version="1.0" encoding="UTF-8" standalone="no"?>
<svg
   height="40"
   viewBox="0 -960 960 960"
   width="40"
   version="1.1"
   id="svg4"
   sodipodi:docname="dog-vaccine.svg"
   inkscape:version="1.2.2 (732a01da63, 2022-12-09)"
   xmlns:inkscape="http://www.inkscape.org/namespaces/inkscape"
   xmlns:sodipodi="http://sodipodi.sourceforge.net/DTD/sodipodi-0.dtd"
   xmlns="http://www.w3.org/2000/svg"
   xmlns:svg="http://www.w3.org/2000/svg">
  <defs
     id="defs8" />
  <sodipodi:namedview
     id="namedview6"
     pagecolor="#ffffff"
     bordercolor="#000000"
     borderopacity="0.25"
     inkscape:showpageshadow="2"
     inkscape:pageopacity="0.0"
     inkscape:pagecheckerboard="0"
     inkscape:deskcolor="#d1d1d1"
     showgrid="false"
     inkscape:zoom="20.725"
     inkscape:cx="17.997587"
     inkscape:cy="19.975875"
     inkscape:window-width="1920"
     inkscape:window-height="1009"
     inkscape:window-x="-8"
     inkscape:window-y="-8"
     inkscape:window-maximized="1"
     inkscape:current-layer="svg4" />
  <path
     d="m313.333-60-66.666-50v-176.667h-53.334q-27 0-46.833-19.833t-19.833-46.833v-313.334H120q-14.333 0-23.833-9.5-9.5-9.5-9.5-23.833 0-14.333 9.5-23.833 9.5-9.5 23.833-9.5h126.667v-80.001H220q-14.333 0-23.833-9.5-9.5-9.5-9.5-23.833 0-14.333 9.5-23.833 9.5-9.5 23.833-9.5h120q14.333 0 23.833 9.5 9.5 9.5 9.5 23.833 0 14.333-9.5 23.833-9.5 9.5-23.833 9.5h-26.667v80.001H440q14.333 0 23.833 9.5 9.5 9.5 9.5 23.833 0 14.333-9.5 23.833-9.5 9.5-23.833 9.5h-6.667v313.334q0 27-19.833 46.833t-46.833 19.833h-53.334V-60Zm-120-293.333h173.334v-73.334H290q-9.333 0-16.333-7-7-7-7-16.333 0-9.333 7-16.333 7-7 16.333-7h76.667v-73.334H290q-9.333 0-16.333-7-7-7-7-16.333 0-9.333 7-16.333 7-7 16.333-7h76.667v-73.334H193.333v313.334ZM600-80q-27 0-46.833-19.833t-19.833-46.833v-264q0-31 8.666-48.334 8.667-17.333 21-31.333 16.334-18 23.334-28.167 7-10.167 7-21.5v-26.667h-6.667q-14.333 0-23.833-9.5-9.5-9.5-9.5-23.833 0-14.333 9.833-23.833 9.833-9.5 23.5-9.5h200q14.333 0 23.833 9.5 9.5 9.5 9.5 23.833 0 14.333-9.5 23.833-9.5 9.5-23.833 9.5H780V-540q0 10.667 8.333 22.667 8.334 12 25 30 12.334 14 19.5 30.333Q840-440.667 840-410.666v264q0 27-19.833 46.833T773.334-80H600Zm0-306.666h173.334v-24q0-17-9.667-30.001-9.667-13-21.333-27.333-13.667-17-21.334-33-7.666-16-7.666-39v-26.667H660V-540q0 22-7.167 38-7.166 16-20.833 33-11.667 14.333-21.833 27.833Q600-427.666 600-410.666v24Zm0 240h173.334V-220H600v73.334Z"
     id="path2"
     style="fill:#fe7f4c;fill-opacity:1" />
</svg>
