<?xml version="1.0" encoding="UTF-8" standalone="no"?>
<!-- Created with Inkscape (http://www.inkscape.org/) -->

<svg
   width="30"
   height="30"
   version="1.1"
   viewBox="0 0 30 30"
   id="svg4"
   sodipodi:docname="phone.svg"
   inkscape:version="1.2.2 (732a01da63, 2022-12-09)"
   xmlns:inkscape="http://www.inkscape.org/namespaces/inkscape"
   xmlns:sodipodi="http://sodipodi.sourceforge.net/DTD/sodipodi-0.dtd"
   xmlns="http://www.w3.org/2000/svg"
   xmlns:svg="http://www.w3.org/2000/svg">
  <defs
     id="defs8" />
  <sodipodi:namedview
     id="namedview6"
     pagecolor="#ffffff"
     bordercolor="#000000"
     borderopacity="0.25"
     inkscape:showpageshadow="2"
     inkscape:pageopacity="0.0"
     inkscape:pagecheckerboard="0"
     inkscape:deskcolor="#d1d1d1"
     showgrid="false"
     inkscape:zoom="3.0359072"
     inkscape:cx="6.0937305"
     inkscape:cy="11.85807"
     inkscape:window-width="1366"
     inkscape:window-height="697"
     inkscape:window-x="239"
     inkscape:window-y="1072"
     inkscape:window-maximized="1"
     inkscape:current-layer="svg4" />
  <path
     d="M 22.810663,29.170317 C 19.409626,28.742947 15.300444,26.51988 11.094869,22.832049 10.217866,22.063029 8.2616514,20.105862 7.5043304,19.239869 3.976412,15.205482 1.81291,11.281832 1.2666352,7.929547 1.1950214,7.4897267 1.1791148,7.1438004 1.2017228,6.5179665 1.2350614,5.5952279 1.3118247,5.2406257 1.6194959,4.5880074 1.8060392,4.192313 1.9307455,4.0526901 3.5208708,2.4595476 5.0380007,0.93950636 5.262386,0.73608254 5.5896217,0.5843219 6.4090867,0.20420044 7.2677756,0.2239235 8.1304344,0.64268649 8.6001987,0.87072973 8.6572188,0.922467 10.821631,3.0847251 c 1.216203,1.2149849 2.290755,2.3361185 2.387888,2.4913726 0.299599,0.4788535 0.416614,0.9672027 0.385679,1.6095521 -0.0236,0.4900538 -0.05027,0.6031256 -0.23313,0.9881644 -0.301732,0.6353619 -0.705022,1.0100787 -1.425713,1.3247693 -0.656006,0.286413 -0.93052,0.4636399 -1.239546,0.8001435 -0.9013537,0.981548 -0.9251737,2.070498 -0.08311,3.803227 1.367116,2.813103 5.054418,5.917976 7.312777,6.157236 0.885526,0.09398 1.925936,-0.365343 2.454001,-1.083445 0.09136,-0.12423 0.274329,-0.477154 0.406604,-0.784264 0.194643,-0.451937 0.305501,-0.624616 0.581423,-0.9058 0.931367,-0.948993 2.319974,-1.072011 3.459687,-0.306459 0.416937,0.280066 4.519206,4.396876 4.753967,4.7708 0.410182,0.653359 0.5204,1.611616 0.269892,2.34644 -0.233289,0.684325 -0.438449,0.936236 -2.127084,2.611744 -1.777245,1.763482 -1.955737,1.896293 -2.864872,2.132482 -0.433542,0.112628 -1.598754,0.186374 -2.049642,0.129725 z"
     fill="#fe7f4c"
     stroke-width="0.0564642"
     id="path2" />
</svg>
