<?xml version="1.0" encoding="UTF-8"?>
<!-- Created with Inkscape (http://www.inkscape.org/) -->
<svg width="30" height="30" version="1.1" viewBox="0 0 30 30" xmlns="http://www.w3.org/2000/svg">
 <path d="m22.145 29.175c-3.387-0.4256-7.4792-2.6395-11.667-6.3121-0.87338-0.76584-2.8215-2.7149-3.5757-3.5773-3.5133-4.0177-5.6679-7.9251-6.2119-11.264-0.07132-0.438-0.08716-0.7825-0.06464-1.4057 0.0332-0.91892 0.10965-1.2721 0.41605-1.922 0.18577-0.39406 0.30996-0.5331 1.8935-2.1197 1.5109-1.5138 1.7343-1.7163 2.0602-1.8675 0.81608-0.37855 1.6712-0.35891 2.5303 0.05812 0.46782 0.2271 0.52461 0.27862 2.6801 2.4319 1.2112 1.21 2.2813 2.3265 2.378 2.4811 0.29836 0.47687 0.41489 0.9632 0.38408 1.6029-0.0235 0.48803-0.05006 0.60063-0.23217 0.98408-0.30048 0.63274-0.70211 1.0059-1.4198 1.3193-0.65329 0.28523-0.92667 0.46172-1.2344 0.79684-0.89763 0.97749-0.92135 2.0619-0.08276 3.7875 1.3615 2.8015 5.0335 5.8935 7.2825 6.1318 0.88187 0.09359 1.918-0.36383 2.4439-1.079 0.09098-0.12372 0.2732-0.47518 0.40492-0.78102 0.19384-0.45007 0.30424-0.62204 0.57902-0.90206 0.92752-0.94507 2.3104-1.0676 3.4454-0.30519 0.41521 0.27891 4.5005 4.3787 4.7343 4.7511 0.40849 0.65066 0.51825 1.605 0.26878 2.3367-0.23232 0.6815-0.43664 0.93237-2.1183 2.6009-1.7699 1.7562-1.9477 1.8885-2.853 2.1237-0.43175 0.11216-1.5921 0.1856-2.0412 0.12919z" fill="#f7ecdf" stroke-width=".056231"/>
</svg>
