<?xml version="1.0" encoding="UTF-8" standalone="no"?>
<svg
   width="280"
   height="280"
   version="1.1"
   viewBox="0 0 2389.3333 2389.3333"
   id="svg8"
   sodipodi:docname="wpp-orange.svg"
   inkscape:version="1.2.2 (732a01da63, 2022-12-09)"
   xmlns:inkscape="http://www.inkscape.org/namespaces/inkscape"
   xmlns:sodipodi="http://sodipodi.sourceforge.net/DTD/sodipodi-0.dtd"
   xmlns="http://www.w3.org/2000/svg"
   xmlns:svg="http://www.w3.org/2000/svg">
  <defs
     id="defs12" />
  <sodipodi:namedview
     id="namedview10"
     pagecolor="#ffffff"
     bordercolor="#000000"
     borderopacity="0.25"
     inkscape:showpageshadow="2"
     inkscape:pageopacity="0.0"
     inkscape:pagecheckerboard="0"
     inkscape:deskcolor="#d1d1d1"
     showgrid="false"
     inkscape:zoom="2.4954977"
     inkscape:cx="138.24898"
     inkscape:cy="121.41867"
     inkscape:window-width="1920"
     inkscape:window-height="1027"
     inkscape:window-x="-8"
     inkscape:window-y="-8"
     inkscape:window-maximized="1"
     inkscape:current-layer="svg8" />
  <g
     fill="#f7ecdf"
     font-family="none"
     font-size="none"
     font-weight="none"
     stroke-dasharray="none"
     stroke-miterlimit="10"
     text-anchor="none"
     style="mix-blend-mode:normal"
     id="g6"
     transform="matrix(11.38541,0,0,11.38541,-265.86547,-265.86547)">
    <g
       transform="scale(8.5333)"
       id="g4">
      <path
         d="M 15,3 C 8.373,3 3,8.373 3,15 c 0,2.2512 0.63234,4.3501 1.7109,6.1504 L 3.1074,27 9.082,25.4316 C 10.8293,26.42502 12.8465,27 15,27 21.627,27 27,21.627 27,15 27,8.373 21.627,3 15,3 Z m -4.1074,6.4023 c 0.195,0 0.39536,-0.00119 0.56836,0.00781 0.214,0.005 0.44692,0.02067 0.66992,0.51367 0.265,0.586 0.84202,2.0561 0.91602,2.2051 0.074,0.149 0.12644,0.32453 0.02344,0.51953 -0.098,0.2 -0.14897,0.32105 -0.29297,0.49805 -0.149,0.172 -0.31227,0.38563 -0.44727,0.51563 -0.149,0.149 -0.30286,0.31238 -0.13086,0.60938 0.172,0.297 0.76934,1.2706 1.6523,2.0566 1.135,1.014 2.0926,1.3256 2.3906,1.4746 0.298,0.149 0.47058,0.12578 0.64258,-0.07422 0.177,-0.195 0.74336,-0.86411 0.94336,-1.1621 0.195,-0.298 0.39406,-0.24644 0.66406,-0.14844 0.274,0.098 1.7352,0.8178 2.0332,0.9668 0.298,0.149 0.49336,0.22275 0.56836,0.34375 0.077,0.125 0.07708,0.72006 -0.16992,1.4141 -0.247,0.693 -1.4599,1.3632 -2.0039,1.4102 -0.549,0.051 -1.0614,0.24677 -3.5684,-0.74023 -3.024,-1.191 -4.9311,-4.2883 -5.0801,-4.4883 -0.149,-0.195 -1.2109,-1.6103 -1.2109,-3.0703 0,-1.465 0.76811,-2.1825 1.0371,-2.4805 0.274,-0.298 0.59492,-0.37109 0.79492,-0.37109 z"
         fill="#fe7f4c"
         id="path2" />
    </g>
  </g>
</svg>
