<?xml version="1.0" encoding="UTF-8" standalone="no"?>
<!-- Generator: Adobe Illustrator 18.0.0, SVG Export Plug-In . SVG Version: 6.00 Build 0)  -->

<svg
   version="1.1"
   id="Capa_1"
   x="0px"
   y="0px"
   viewBox="0 0 180 180"
   xml:space="preserve"
   sodipodi:docname="dog-dish.svg"
   inkscape:version="1.2.2 (732a01da63, 2022-12-09)"
   width="180"
   height="180"
   xmlns:inkscape="http://www.inkscape.org/namespaces/inkscape"
   xmlns:sodipodi="http://sodipodi.sourceforge.net/DTD/sodipodi-0.dtd"
   xmlns="http://www.w3.org/2000/svg"
   xmlns:svg="http://www.w3.org/2000/svg"><defs
   id="defs37" /><sodipodi:namedview
   id="namedview35"
   pagecolor="#ffffff"
   bordercolor="#000000"
   borderopacity="0.25"
   inkscape:showpageshadow="2"
   inkscape:pageopacity="0.0"
   inkscape:pagecheckerboard="0"
   inkscape:deskcolor="#d1d1d1"
   showgrid="false"
   inkscape:zoom="2.6665981"
   inkscape:cx="49.688778"
   inkscape:cy="91.502353"
   inkscape:window-width="1366"
   inkscape:window-height="697"
   inkscape:window-x="239"
   inkscape:window-y="1072"
   inkscape:window-maximized="1"
   inkscape:current-layer="Capa_1" />
<path
   d="m 172.81684,95.688112 c 0,0 -9.44933,-41.271052 -9.60689,-41.606295 -1.97175,-6.149282 -9.82022,-11.085849 -23.41777,-14.700434 -13.36524,-3.554212 -31.04716,-5.511011 -49.788855,-5.511011 -18.741115,0 -36.423616,1.956799 -49.78885,5.511011 -13.603295,3.616888 -21.45292,8.555753 -23.42007,14.709063 -0.156407,0.332365 -9.6040175,41.598237 -9.6040175,41.598237 -3.8215959,1.327153 -6.56905121,4.951517 -6.56905121,9.225657 0,10.80466 10.28886771,19.01885 30.57966871,24.41428 15.832084,4.20916 36.715152,6.52822 58.80232,6.52822 0.0012,0 0.0023,0 0.0034,0 22.086595,0 42.967945,-2.31791 58.798875,-6.52764 20.2908,-5.39544 30.57967,-13.60962 30.57967,-24.41486 5.7e-4,-4.27414 -2.74688,-7.898504 -6.56848,-9.226228 z m -50.60596,8.585648 c 0,4.5927 -3.73649,8.32977 -8.32919,8.32977 -4.4593,0 -8.11183,-3.52143 -8.32114,-7.92955 H 74.446104 c -0.209864,4.40812 -3.861269,7.92955 -8.319987,7.92955 -4.59328,0 -8.329768,-3.73707 -8.329768,-8.32977 0,-2.1753 0.838381,-4.15856 2.209234,-5.643833 -1.370853,-1.485286 -2.209234,-3.468539 -2.209234,-5.643845 0,-4.592699 3.737068,-8.329768 8.329768,-8.329768 4.458718,0 8.110105,3.521435 8.319987,7.929551 h 31.114446 c 0.2093,-4.408116 3.86184,-7.929551 8.32114,-7.929551 4.5927,0 8.32919,3.737069 8.32919,8.329768 0,2.175306 -0.83838,4.158559 -2.20923,5.643845 1.37085,1.485273 2.20923,3.468533 2.20923,5.643833 z m 13.7459,-39.790372 c -12.38885,3.132726 -28.70854,4.858364 -45.953455,4.858364 -17.244907,0 -33.564608,-1.725638 -45.953453,-4.858364 -11.915606,-3.013111 -16.107516,-6.324089 -17.133356,-7.694941 1.03504,-1.394424 5.235,-4.701957 17.135659,-7.710469 12.388269,-3.132721 28.707395,-4.857788 45.95115,-4.857788 17.243185,0 33.562305,1.725067 45.950585,4.857788 11.8765,3.003341 16.08336,6.302815 17.12933,7.70242 -1.04194,1.396727 -5.24305,4.697352 -17.12646,7.70299 z"
   id="path2"
   style="fill:#f7ecdf;fill-opacity:1;stroke-width:0.575019" />
<g
   id="g4">
</g>
<g
   id="g6">
</g>
<g
   id="g8">
</g>
<g
   id="g10">
</g>
<g
   id="g12">
</g>
<g
   id="g14">
</g>
<g
   id="g16">
</g>
<g
   id="g18">
</g>
<g
   id="g20">
</g>
<g
   id="g22">
</g>
<g
   id="g24">
</g>
<g
   id="g26">
</g>
<g
   id="g28">
</g>
<g
   id="g30">
</g>
<g
   id="g32">
</g>
</svg>
