<?xml version="1.0" encoding="UTF-8" standalone="no"?>
<svg
   height="180"
   viewBox="0 -960 4320 4320"
   width="180"
   version="1.1"
   id="svg4"
   sodipodi:docname="dog-paw.svg"
   inkscape:version="1.2.2 (732a01da63, 2022-12-09)"
   xmlns:inkscape="http://www.inkscape.org/namespaces/inkscape"
   xmlns:sodipodi="http://sodipodi.sourceforge.net/DTD/sodipodi-0.dtd"
   xmlns="http://www.w3.org/2000/svg"
   xmlns:svg="http://www.w3.org/2000/svg">
  <defs
     id="defs8" />
  <sodipodi:namedview
     id="namedview6"
     pagecolor="#ffffff"
     bordercolor="#000000"
     borderopacity="0.25"
     inkscape:showpageshadow="2"
     inkscape:pageopacity="0.0"
     inkscape:pagecheckerboard="0"
     inkscape:deskcolor="#d1d1d1"
     showgrid="false"
     inkscape:zoom="0.91592425"
     inkscape:cx="63.86991"
     inkscape:cy="143.02493"
     inkscape:window-width="1366"
     inkscape:window-height="697"
     inkscape:window-x="239"
     inkscape:window-y="1072"
     inkscape:window-maximized="1"
     inkscape:current-layer="svg4" />
  <path
     d="m 511.19898,976.64566 q -211.25441,0 -356.61658,-145.86828 Q 9.2201843,684.90906 9.2201843,473.65476 q 0,-211.25444 145.8682857,-356.61656 145.86829,-145.362252 357.12263,-145.362252 211.25444,0 356.61652,145.868322 145.36228,145.86827 145.36228,357.12262 0,211.25439 -145.8683,356.6166 Q 722.45869,976.64566 511.19898,976.64566 Z M 1498.2299,79.346278 q -211.2597,0 -356.622,-145.868274 -145.3622,-145.862914 -145.3622,-357.122664 0,-211.2544 145.8683,-356.61651 145.8682,-145.36226 357.1227,-145.36226 211.2596,0 356.6219,145.86827 145.3622,145.86832 145.3622,357.12267 0,211.25439 -145.8682,356.616512 -145.8683,145.362256 -357.1227,145.362256 z m 1328.0022,0 q -211.2598,0 -356.622,-145.868274 -145.3621,-145.862914 -145.3621,-357.122664 0,-211.2544 145.8682,-356.61651 145.8684,-145.36226 357.1227,-145.36226 211.2597,0 356.6219,145.86827 145.3623,145.86832 145.3623,357.12267 0,211.25439 -145.8683,356.616512 -145.8683,145.362256 -357.1227,145.362256 z m 987.0256,897.299382 q -211.2543,0 -356.6166,-145.86828 -145.3622,-145.86832 -145.3622,-357.12262 0,-211.25444 145.8682,-356.61656 145.863,-145.362252 357.1227,-145.362252 211.2544,0 356.6166,145.868322 145.3622,145.86827 145.3622,357.12262 0,211.25439 -145.8683,356.6166 -145.8683,145.36217 -357.1226,145.36217 z M 1010.6043,3166.0536 q -231.50279,0 -383.14786,-175.0645 -151.63971,-175.0646 -151.63971,-413.5609 0,-244.0631 155.23064,-430.7028 155.23077,-186.6344 322.12808,-362.5065 131.00355,-134.5946 236.88655,-288.0271 105.8775,-153.4379 218.9371,-304.184 143.5693,-204.58373 324.8252,-371.4865 181.256,-166.89736 428.9101,-166.89736 247.6541,0 430.7028,165.1046 183.0541,165.10446 326.6181,373.27926 111.2667,150.7461 216.2506,303.2849 104.9838,152.5388 235.9874,288.9262 166.8974,175.8721 322.1281,362.5065 155.2307,186.6397 155.2307,430.7028 0,238.4963 -151.6398,413.5609 -151.645,175.0645 -383.1478,175.0645 -290.7244,0 -576.065,-48.454 -285.3407,-48.4541 -576.0651,-48.4541 -290.7245,0 -576.065,48.4541 -285.3407,48.454 -576.0651,48.454 z"
     id="path2"
     style="fill:#f7ecdf;fill-opacity:1;stroke-width:5.38378" />
</svg>
