<?xml version="1.0" encoding="UTF-8" standalone="no"?>
<svg
   height="40"
   viewBox="0 -960 960 960"
   width="40"
   version="1.1"
   id="svg4"
   sodipodi:docname="celebration_FILL1_wght400_GRAD0_opsz40.svg"
   inkscape:version="1.2.2 (732a01da63, 2022-12-09)"
   xmlns:inkscape="http://www.inkscape.org/namespaces/inkscape"
   xmlns:sodipodi="http://sodipodi.sourceforge.net/DTD/sodipodi-0.dtd"
   xmlns="http://www.w3.org/2000/svg"
   xmlns:svg="http://www.w3.org/2000/svg">
  <defs
     id="defs8" />
  <sodipodi:namedview
     id="namedview6"
     pagecolor="#ffffff"
     bordercolor="#000000"
     borderopacity="0.25"
     inkscape:showpageshadow="2"
     inkscape:pageopacity="0.0"
     inkscape:pagecheckerboard="0"
     inkscape:deskcolor="#d1d1d1"
     showgrid="false"
     inkscape:zoom="10.3625"
     inkscape:cx="14.668275"
     inkscape:cy="15.440289"
     inkscape:window-width="1920"
     inkscape:window-height="1009"
     inkscape:window-x="-8"
     inkscape:window-y="-8"
     inkscape:window-maximized="1"
     inkscape:current-layer="svg4" />
  <path
     d="m 15.787696,-25.19234 206.985494,-578.98207 374.16776,371.27249 z m 526.873654,-400.94497 -39.8054,-39.8054 254.75263,-254.75264 q 34.73894,-34.73895 86.48586,-35.10045 51.74691,-0.3615 86.48586,34.37745 l 20.98775,20.98775 -39.8054,39.80432 -22.43485,-22.43485 q -18.81765,-18.81765 -44.50927,-19.17916 -25.6927,-0.36149 -45.23336,19.17916 z m -172.97064,-170.07646 -39.8054,-39.80431 30.39657,-30.39659 q 21.71184,-21.71184 20.62625,-50.29982 -1.08559,-28.58689 -20.62625,-48.12863 l -29.67248,-29.67249 39.80431,-39.80432 28.22539,28.22539 q 36.91014,36.91013 36.54864,90.82715 -0.36151,53.9181 -37.27164,90.82824 z m 87.57037,84.67618 -39.80432,-39.80431 162.11471,-162.11581 q 18.81766,-18.81657 18.45508,-47.76605 -0.36151,-28.94949 -19.17808,-47.76605 l -67.3067,-67.30671 39.80432,-39.8054 68.7538,68.75488 q 34.01594,34.73895 34.73894,86.12328 0.72409,51.38433 -34.01485,86.12328 z m 172.24763,172.97173 -39.8054,-39.8054 57.17488,-57.17379 q 36.91013,-36.91014 88.65596,-37.63423 51.74691,-0.72409 88.65705,36.18604 l 60.06906,60.06907 -39.80432,39.8054 -60.79315,-60.79315 q -21.71184,-21.71184 -47.40455,-21.71184 -25.69271,0 -47.40455,21.71184 z"
     id="path2"
     style="stroke-width:1.0856;fill:#f7ecdf;fill-opacity:1" />
</svg>
