<?xml version="1.0" encoding="UTF-8" standalone="no"?>
<svg
   height="180"
   viewBox="0 -960 4320 4320"
   width="180"
   version="1.1"
   id="svg4"
   sodipodi:docname="dog-sofa.svg"
   inkscape:version="1.2.2 (732a01da63, 2022-12-09)"
   xmlns:inkscape="http://www.inkscape.org/namespaces/inkscape"
   xmlns:sodipodi="http://sodipodi.sourceforge.net/DTD/sodipodi-0.dtd"
   xmlns="http://www.w3.org/2000/svg"
   xmlns:svg="http://www.w3.org/2000/svg">
  <defs
     id="defs8" />
  <sodipodi:namedview
     id="namedview6"
     pagecolor="#ffffff"
     bordercolor="#000000"
     borderopacity="0.25"
     inkscape:showpageshadow="2"
     inkscape:pageopacity="0.0"
     inkscape:pagecheckerboard="0"
     inkscape:deskcolor="#d1d1d1"
     showgrid="false"
     inkscape:zoom="1.8318485"
     inkscape:cx="152.57812"
     inkscape:cy="117.91368"
     inkscape:window-width="1366"
     inkscape:window-height="697"
     inkscape:window-x="239"
     inkscape:window-y="1072"
     inkscape:window-maximized="1"
     inkscape:current-layer="svg4" />
  <path
     d="m 769.1853,2890.0164 q -69.86724,0 -116.1757,-46.3085 -46.30842,-46.3084 -46.30842,-116.1757 v -204.7369 h -61.74623 q -227.48171,0 -380.21671,-162.4842 -152.735,-162.4841 -152.735,-389.9658 V 858.94261 q 0,-154.36311 104.80333,-265.66424 104.80332,-111.30603 255.91509,-111.30603 151.11179,0 255.9151,111.30603 104.8033,111.30113 104.8033,265.66424 V 1681.1173 H 3580.1908 V 858.94261 q 0,-154.36311 104.8033,-265.66424 104.8033,-111.30603 255.9151,-111.30603 151.1118,0 255.9151,111.30603 104.8033,111.30113 104.8033,265.66424 V 1970.3453 q 0,227.4817 -152.735,389.9658 -152.735,162.4842 -376.9653,162.4842 h -64.9976 v 204.7369 q 0,69.8673 -46.3084,116.1757 -46.3085,46.3085 -116.1757,46.3085 -69.8673,0 -116.1757,-46.3085 -46.3085,-46.3084 -46.3085,-116.1757 V 2522.7953 H 931.66947 v 204.7369 q 0,69.8673 -46.30847,116.1757 -46.30842,46.3085 -116.1757,46.3085 z M 1058.4084,1356.149 V 858.94261 q 0,-245.35681 -140.54859,-437.90242 Q 777.31122,228.49943 544.95495,166.75321 V -93.22728 q 0,-217.72768 147.86044,-373.71403 147.86043,-155.98635 365.59301,-155.98635 h 2196.8141 q 217.7326,0 367.2162,155.98635 149.4886,155.98635 149.4886,373.71403 V 166.75321 Q 3537.9478,225.24809 3396.5851,419.41695 3255.2225,613.5858 3255.2225,858.94261 V 1356.149 Z"
     id="path2"
     style="fill:#f7ecdf;fill-opacity:1;stroke-width:4.87458" />
</svg>
