<?xml version="1.0" encoding="UTF-8" standalone="no"?>
<svg
   height="40"
   viewBox="0 -960 960 960"
   width="40"
   version="1.1"
   id="svg4"
   sodipodi:docname="pets_FILL1_wght400_GRAD0_opsz40.svg"
   inkscape:version="1.2.2 (732a01da63, 2022-12-09)"
   xmlns:inkscape="http://www.inkscape.org/namespaces/inkscape"
   xmlns:sodipodi="http://sodipodi.sourceforge.net/DTD/sodipodi-0.dtd"
   xmlns="http://www.w3.org/2000/svg"
   xmlns:svg="http://www.w3.org/2000/svg">
  <defs
     id="defs8" />
  <sodipodi:namedview
     id="namedview6"
     pagecolor="#ffffff"
     bordercolor="#000000"
     borderopacity="0.25"
     inkscape:showpageshadow="2"
     inkscape:pageopacity="0.0"
     inkscape:pagecheckerboard="0"
     inkscape:deskcolor="#d1d1d1"
     showgrid="false"
     inkscape:zoom="10.3625"
     inkscape:cx="24.897467"
     inkscape:cy="17.08082"
     inkscape:window-width="1920"
     inkscape:window-height="1009"
     inkscape:window-x="-8"
     inkscape:window-y="-8"
     inkscape:window-maximized="1"
     inkscape:current-layer="svg4" />
  <path
     d="m 118.76876,-510.48464 q -46.102783,0 -77.825675,-31.83334 -31.7229007,-31.83335 -31.7229007,-77.93611 0,-46.10279 31.8333427,-77.82567 31.833344,-31.72291 77.936113,-31.72291 46.10279,0 77.82566,31.83335 31.72291,31.83334 31.72291,77.93611 0,46.10278 -31.83334,77.82568 -31.83217,31.72289 -77.93611,31.72289 z M 334.17194,-706.3054 q -46.10394,0 -77.82685,-31.83334 -31.7229,-31.83217 -31.7229,-77.93612 0,-46.10278 31.83334,-77.82566 31.83334,-31.72291 77.93613,-31.72291 46.10393,0 77.82685,31.83334 31.72288,31.83335 31.72288,77.93612 0,46.10278 -31.83332,77.82566 -31.83334,31.72291 -77.93613,31.72291 z m 289.81455,0 q -46.10396,0 -77.82687,-31.83334 -31.72288,-31.83217 -31.72288,-77.93612 0,-46.10278 31.83334,-77.82566 31.83335,-31.72291 77.93612,-31.72291 46.10394,0 77.82684,31.83334 31.72291,31.83335 31.72291,77.93612 0,46.10278 -31.83335,77.82566 -31.83334,31.72291 -77.93611,31.72291 z m 215.40202,195.82076 q -46.10277,0 -77.82568,-31.83334 -31.7229,-31.83335 -31.7229,-77.93611 0,-46.10279 31.83333,-77.82567 31.83218,-31.72291 77.93611,-31.72291 46.1028,0 77.82568,31.83335 31.72291,31.83334 31.72291,77.93611 0,46.10278 -31.83334,77.82568 -31.83335,31.72289 -77.93611,31.72289 z M 227.75572,-32.682538 q -50.52166,0 -83.61569,-38.204944 -33.09286,-38.204948 -33.09286,-90.252828 0,-53.26274 33.87652,-93.99377 33.87655,-40.72987 70.29913,-79.11104 28.58937,-29.37305 51.69657,-62.85717 23.10602,-33.48527 47.7794,-66.38312 31.33164,-44.64702 70.88775,-81.07079 39.55611,-36.42259 93.60253,-36.42259 54.04642,0 93.99378,36.03135 39.94853,36.03132 71.279,81.46203 24.28211,32.89785 47.19311,66.18692 22.91099,33.28906 51.50036,63.05337 36.42259,38.38117 70.29913,79.11104 33.87652,40.73103 33.87652,93.99377 0,52.04788 -33.09286,90.252828 -33.09403,38.204944 -83.61568,38.204944 -63.44581,0 -125.71668,-10.57429 -62.27089,-10.574303 -125.71668,-10.574303 -63.44581,0 -125.71667,10.574303 -62.27088,10.57429 -125.71668,10.57429 z"
     id="path2"
     style="fill:#f7ecdf;fill-opacity:1;stroke-width:1.17492" />
</svg>
