<?xml version="1.0" encoding="UTF-8" standalone="no"?>
<svg
   height="180"
   viewBox="0 -960 4320 4320"
   width="180"
   version="1.1"
   id="svg4"
   sodipodi:docname="dog-party.svg"
   inkscape:version="1.2.2 (732a01da63, 2022-12-09)"
   xmlns:inkscape="http://www.inkscape.org/namespaces/inkscape"
   xmlns:sodipodi="http://sodipodi.sourceforge.net/DTD/sodipodi-0.dtd"
   xmlns="http://www.w3.org/2000/svg"
   xmlns:svg="http://www.w3.org/2000/svg">
  <defs
     id="defs8" />
  <sodipodi:namedview
     id="namedview6"
     pagecolor="#ffffff"
     bordercolor="#000000"
     borderopacity="0.25"
     inkscape:showpageshadow="2"
     inkscape:pageopacity="0.0"
     inkscape:pagecheckerboard="0"
     inkscape:deskcolor="#d1d1d1"
     showgrid="false"
     inkscape:zoom="2.590625"
     inkscape:cx="67.358263"
     inkscape:cy="93.027744"
     inkscape:window-width="1366"
     inkscape:window-height="697"
     inkscape:window-x="239"
     inkscape:window-y="1072"
     inkscape:window-maximized="1"
     inkscape:current-layer="svg4" />
  <path
     d="M 15.787696,3263.6316 964.56365,609.70515 2679.6663,2311.5365 Z M 2430.8606,1425.788 2248.4014,1243.3288 3416.1314,75.598799 Q 3575.3671,-83.6369 3812.5635,-85.29394 4049.76,-86.95098 4208.9957,72.284726 l 96.2032,96.203224 -182.4592,182.45425 -102.8364,-102.83642 q -86.256,-86.25596 -204.0207,-87.91305 -117.7697,-1.65699 -207.3398,87.91305 z M 1638.0012,646.19497 1455.542,463.74077 1594.8732,324.40949 q 99.5223,-99.52229 94.5462,-230.563305 -4.9761,-131.036015 -94.5462,-220.611045 l -136.0121,-136.01217 182.4542,-182.45424 129.379,129.37897 q 169.1879,169.18792 167.5309,416.33167 -1.6571,247.14871 -170.845,416.33667 z m 401.4033,388.13703 -182.4542,-182.45425 743.0982,-743.1032 q 86.256,-86.251018 84.594,-218.94906 -1.6571,-132.6981 -87.9081,-218.94907 l -308.5191,-308.51915 182.4542,-182.45919 315.1523,315.15724 q 155.9216,159.2357 159.2357,394.77017 3.319,235.53446 -155.9166,394.77016 z m 789.5453,792.8643 -182.4592,-182.4592 262.0771,-262.0721 q 169.1879,-169.1879 406.3794,-172.507 237.1964,-3.3191 406.3844,165.8688 l 275.3433,275.3434 -182.4542,182.4592 -278.6624,-278.6624 q -99.5223,-99.5223 -217.2921,-99.5223 -117.7697,0 -217.292,99.5223 z"
     id="path2"
     style="fill:#f7ecdf;fill-opacity:1;stroke-width:4.97615" />
</svg>
