<?xml version="1.0" encoding="UTF-8" standalone="no"?>
<svg
   height="40"
   viewBox="0 -960 960 960"
   width="40"
   version="1.1"
   id="svg185"
   sodipodi:docname="photo_camera_FILL1_wght400_GRAD0_opsz40.svg"
   inkscape:version="1.2.2 (732a01da63, 2022-12-09)"
   xmlns:inkscape="http://www.inkscape.org/namespaces/inkscape"
   xmlns:sodipodi="http://sodipodi.sourceforge.net/DTD/sodipodi-0.dtd"
   xmlns="http://www.w3.org/2000/svg"
   xmlns:svg="http://www.w3.org/2000/svg">
  <defs
     id="defs189" />
  <sodipodi:namedview
     id="namedview187"
     pagecolor="#ffffff"
     bordercolor="#000000"
     borderopacity="0.25"
     inkscape:showpageshadow="2"
     inkscape:pageopacity="0.0"
     inkscape:pagecheckerboard="0"
     inkscape:deskcolor="#d1d1d1"
     showgrid="false"
     inkscape:zoom="14.654788"
     inkscape:cx="15.831003"
     inkscape:cy="13.783891"
     inkscape:window-width="1920"
     inkscape:window-height="1009"
     inkscape:window-x="-8"
     inkscape:window-y="-8"
     inkscape:window-maximized="1"
     inkscape:current-layer="svg185" />
  <path
     d="M480-264q73 0 123.167-50.167 50.166-50.166 50.166-123.166 0-73.667-50.166-123.5Q553-610.666 480-610.666q-73.667 0-123.5 49.833t-49.833 123.5q0 73 49.833 123.166Q406.333-264 480-264ZM146.666-120q-27 0-46.833-19.833T80-186.666v-502.001q0-26.333 19.833-46.5 19.833-20.166 46.833-20.166h140.001L360-840h240l73.333 84.667h140.001q26.333 0 46.499 20.166Q880-715 880-688.667v502.001q0 27-20.167 46.833Q839.667-120 813.334-120H146.666Z"
     id="path183"
     style="fill:#f7ecdf;fill-opacity:1" />
</svg>
