<?xml version="1.0" encoding="UTF-8" standalone="no"?>
<svg
   height="180"
   viewBox="0 -960 4320 4320"
   width="180"
   version="1.1"
   id="svg185"
   sodipodi:docname="dog-camera.svg"
   inkscape:version="1.2.2 (732a01da63, 2022-12-09)"
   xmlns:inkscape="http://www.inkscape.org/namespaces/inkscape"
   xmlns:sodipodi="http://sodipodi.sourceforge.net/DTD/sodipodi-0.dtd"
   xmlns="http://www.w3.org/2000/svg"
   xmlns:svg="http://www.w3.org/2000/svg">
  <defs
     id="defs189" />
  <sodipodi:namedview
     id="namedview187"
     pagecolor="#ffffff"
     bordercolor="#000000"
     borderopacity="0.25"
     inkscape:showpageshadow="2"
     inkscape:pageopacity="0.0"
     inkscape:pagecheckerboard="0"
     inkscape:deskcolor="#d1d1d1"
     showgrid="false"
     inkscape:zoom="2.590625"
     inkscape:cx="84.728589"
     inkscape:cy="91.869723"
     inkscape:window-width="1366"
     inkscape:window-height="697"
     inkscape:window-x="239"
     inkscape:window-y="1072"
     inkscape:window-maximized="1"
     inkscape:current-layer="svg185" />
  <path
     d="m 2166.0796,2307.9546 q 380.7095,0 642.3404,-261.6308 261.6257,-261.6257 261.6257,-642.3352 0,-384.1881 -261.6257,-644.07713 -261.6309,-259.88901 -642.3404,-259.88901 -384.1881,0 -644.0771,259.88901 -259.889,259.88903 -259.889,644.07713 0,380.7095 259.889,642.3352 259.889,261.6308 644.0771,261.6308 z M 427.67646,3058.9433 q -140.81037,0 -244.24342,-103.433 Q 80,2852.0772 80,2711.2669 V 93.231716 Q 80,-44.10012 183.43304,-149.27504 286.86609,-254.44474 427.67646,-254.44474 H 1157.8095 L 1540.2557,-696 h 1251.6478 l 382.4462,441.55526 h 730.1331 q 137.3318,0 242.5015,105.1697 105.1749,105.17492 105.1749,242.506756 V 2711.2669 q 0,140.8103 -105.1749,244.2434 -105.1697,103.433 -242.5015,103.433 z"
     id="path183"
     style="fill:#f7ecdf;fill-opacity:1;stroke-width:5.2152" />
</svg>
