<?xml version="1.0" encoding="UTF-8" standalone="no"?>
<svg
   height="40"
   viewBox="0 -960 960 960"
   width="40"
   version="1.1"
   id="svg4"
   sodipodi:docname="pet_supplies_FILL1_wght400_GRAD0_opsz40.svg"
   inkscape:version="1.2.2 (732a01da63, 2022-12-09)"
   xmlns:inkscape="http://www.inkscape.org/namespaces/inkscape"
   xmlns:sodipodi="http://sodipodi.sourceforge.net/DTD/sodipodi-0.dtd"
   xmlns="http://www.w3.org/2000/svg"
   xmlns:svg="http://www.w3.org/2000/svg">
  <defs
     id="defs8" />
  <sodipodi:namedview
     id="namedview6"
     pagecolor="#ffffff"
     bordercolor="#000000"
     borderopacity="0.25"
     inkscape:showpageshadow="2"
     inkscape:pageopacity="0.0"
     inkscape:pagecheckerboard="0"
     inkscape:deskcolor="#d1d1d1"
     showgrid="false"
     inkscape:zoom="7.327394"
     inkscape:cx="-14.466262"
     inkscape:cy="38.076293"
     inkscape:window-width="1920"
     inkscape:window-height="1009"
     inkscape:window-x="-8"
     inkscape:window-y="-8"
     inkscape:window-maximized="1"
     inkscape:current-layer="svg4" />
  <path
     d="m 357.85036,-27.59392 q -62.96022,0 -105.37329,-42.41307 -42.41307,-42.41307 -42.41307,-105.37216 0,-9.42588 2.07428,-21.49042 2.07315,-12.06341 -0.56551,-14.7032 -2.63979,-2.63866 -14.7032,-0.56551 -12.06454,2.07428 -21.49042,2.07428 -62.95909,0 -105.37216,-42.41307 -42.41307,-42.41307 -42.41307,-105.37329 0,-62.95909 42.41307,-105.37216 42.41307,-42.41307 105.37216,-42.41307 35.81586,0 62.20697,12.06454 26.38998,12.06341 42.60082,25.63559 l 211.8776,-211.8776 q -12.8178,-16.21084 -25.25896,-42.60082 -12.44117,-26.39111 -12.44117,-62.20697 0,-62.95909 42.41307,-105.37216 42.41307,-42.41307 105.37216,-42.41307 62.96022,0 105.37329,42.41307 42.41307,42.41307 42.41307,105.37216 0,9.42588 -2.07428,21.49042 -2.07315,12.06341 0.56551,14.7032 2.63979,2.63866 14.7032,0.56551 12.06454,-2.07428 21.49042,-2.07428 62.95909,0 105.37216,42.41307 42.41307,42.41307 42.41307,105.37329 0,62.95909 -42.41307,105.37216 -42.41307,42.41307 -105.37216,42.41307 -35.81586,0 -62.20697,-12.44117 -26.38998,-12.44116 -42.60082,-25.25896 l -211.8776,211.8776 q 13.57218,16.21084 25.63559,42.60082 12.06454,26.39111 12.06454,62.20697 0,62.95909 -42.41307,105.37216 -42.41307,42.41307 -105.37216,42.41307 z"
     id="path2"
     style="stroke-width:1.13102;fill:#f7ecdf;fill-opacity:1" />
</svg>
