<?xml version="1.0" encoding="UTF-8" standalone="no"?>
<svg
   height="40"
   viewBox="0 -960 960 960"
   width="40"
   version="1.1"
   id="svg4"
   sodipodi:docname="chair_FILL1_wght400_GRAD0_opsz40.svg"
   inkscape:version="1.2.2 (732a01da63, 2022-12-09)"
   xmlns:inkscape="http://www.inkscape.org/namespaces/inkscape"
   xmlns:sodipodi="http://sodipodi.sourceforge.net/DTD/sodipodi-0.dtd"
   xmlns="http://www.w3.org/2000/svg"
   xmlns:svg="http://www.w3.org/2000/svg">
  <defs
     id="defs8" />
  <sodipodi:namedview
     id="namedview6"
     pagecolor="#ffffff"
     bordercolor="#000000"
     borderopacity="0.25"
     inkscape:showpageshadow="2"
     inkscape:pageopacity="0.0"
     inkscape:pagecheckerboard="0"
     inkscape:deskcolor="#d1d1d1"
     showgrid="false"
     inkscape:zoom="7.327394"
     inkscape:cx="3.6848025"
     inkscape:cy="20.198177"
     inkscape:window-width="1920"
     inkscape:window-height="1009"
     inkscape:window-x="-8"
     inkscape:window-y="-8"
     inkscape:window-maximized="1"
     inkscape:current-layer="svg4" />
  <path
     d="m 177.21992,-96.40534 q -15.24499,0 -25.34947,-10.10448 -10.10447,-10.10447 -10.10447,-25.34947 v -44.67348 h -13.47299 q -49.636375,0 -82.963062,-35.45394 -33.326688,-35.45395 -33.326688,-85.09032 v -242.50741 q 0,-33.68194 22.868024,-57.96778 22.868023,-24.28691 55.840522,-24.28691 32.972504,0 55.840524,24.28691 22.86802,24.28584 22.86802,57.96778 v 179.39804 h 621.15934 v -179.39804 q 0,-33.68194 22.86802,-57.96778 22.86802,-24.28691 55.84052,-24.28691 32.9725,0 55.84053,24.28691 22.86802,24.28584 22.86802,57.96778 v 242.50741 q 0,49.63637 -33.32669,85.09032 -33.32669,35.45394 -82.25362,35.45394 h -14.18243 v 44.67348 q 0,15.245 -10.10447,25.34947 -10.10448,10.10448 -25.34947,10.10448 -15.245,0 -25.34947,-10.10448 -10.10448,-10.10447 -10.10448,-25.34947 v -44.67348 H 212.67387 v 44.67348 q 0,15.245 -10.10448,25.34947 -10.10447,10.10448 -25.34947,10.10448 z m 63.1083,-334.68895 v -108.49015 q 0,-53.53671 -30.66761,-95.55005 -30.66762,-42.01228 -81.36762,-55.48527 v -56.72759 q 0,-47.50805 32.26306,-81.54418 32.26306,-34.03613 79.77217,-34.03613 h 479.34356 q 47.50911,0 80.12636,34.03613 32.61831,34.03613 32.61831,81.54418 v 56.72759 q -51.05419,12.76355 -81.89943,55.13108 -30.84524,42.36753 -30.84524,95.90424 v 108.49015 z"
     id="path2"
     style="stroke-width:1.06363;fill:#f7ecdf;fill-opacity:1" />
</svg>
