<?xml version="1.0" encoding="UTF-8" standalone="no"?>
<svg
   height="140"
   viewBox="0 -960 3360 3360"
   width="140"
   version="1.1"
   id="svg4"
   sodipodi:docname="dog-bone.svg"
   inkscape:version="1.2.2 (732a01da63, 2022-12-09)"
   xmlns:inkscape="http://www.inkscape.org/namespaces/inkscape"
   xmlns:sodipodi="http://sodipodi.sourceforge.net/DTD/sodipodi-0.dtd"
   xmlns="http://www.w3.org/2000/svg"
   xmlns:svg="http://www.w3.org/2000/svg">
  <defs
     id="defs8" />
  <sodipodi:namedview
     id="namedview6"
     pagecolor="#ffffff"
     bordercolor="#000000"
     borderopacity="0.25"
     inkscape:showpageshadow="2"
     inkscape:pageopacity="0.0"
     inkscape:pagecheckerboard="0"
     inkscape:deskcolor="#d1d1d1"
     showgrid="false"
     inkscape:zoom="3.663697"
     inkscape:cx="66.46292"
     inkscape:cy="95.804866"
     inkscape:window-width="1366"
     inkscape:window-height="697"
     inkscape:window-x="239"
     inkscape:window-y="1072"
     inkscape:window-maximized="1"
     inkscape:current-layer="svg4" />
  <path
     d="m 1235.4499,2376.7884 q -230.2662,0 -385.38464,-155.1185 -155.11849,-155.1186 -155.11849,-385.3806 0,-34.4735 7.58632,-78.5974 7.58219,-44.1199 -2.06826,-53.7745 -9.65458,-9.6504 -53.77442,-2.0682 -44.12397,7.5863 -78.5975,7.5863 -230.26201,0 -385.38051,-155.1185 -155.11848,-155.1185 -155.11848,-385.3846 0,-230.26204 155.11848,-385.38052 155.1185,-155.1185 385.38051,-155.1185 130.99033,0 227.51126,44.12398 96.51681,44.11984 155.80516,93.75775 L 1726.3151,-8.5906714 q -46.8789,-59.2883516 -92.3802,-155.8051586 -45.5015,-96.52093 -45.5015,-227.51126 0,-230.26201 155.1184,-385.38051 155.1186,-155.11848 385.3806,-155.11848 230.2661,0 385.3846,155.11848 155.1185,155.1185 155.1185,385.38051 0,34.47353 -7.5863,78.5975 -7.5822,44.11984 2.0682,53.77442 9.6546,9.65045 53.7745,2.06826 44.1239,-7.58632 78.5974,-7.58632 230.262,0 385.3806,155.11849 155.1185,155.118487 155.1185,385.38464 0,230.26201 -155.1185,385.38049 -155.1186,155.1185 -385.3806,155.1185 -130.9903,0 -227.5112,-45.50144 -96.5168,-45.50139 -155.8052,-92.38029 l -774.9057,774.90574 q 49.6379,59.2884 93.7577,155.8052 44.124,96.5209 44.124,227.5112 0,230.262 -155.1185,385.3806 -155.1185,155.1185 -385.3805,155.1185 z"
     id="path2"
     style="fill:#f7ecdf;fill-opacity:1;stroke-width:4.13651" />
</svg>
