<?xml version="1.0" encoding="UTF-8" standalone="no"?>
<svg
   viewBox="0 0 120 120"
   version="1.1"
   id="svg4"
   sodipodi:docname="blob3.svg"
   width="120"
   height="120"
   inkscape:version="1.2.2 (732a01da63, 2022-12-09)"
   xmlns:inkscape="http://www.inkscape.org/namespaces/inkscape"
   xmlns:sodipodi="http://sodipodi.sourceforge.net/DTD/sodipodi-0.dtd"
   xmlns="http://www.w3.org/2000/svg"
   xmlns:svg="http://www.w3.org/2000/svg">
  <defs
     id="defs8" />
  <sodipodi:namedview
     id="namedview6"
     pagecolor="#ffffff"
     bordercolor="#000000"
     borderopacity="0.25"
     inkscape:showpageshadow="2"
     inkscape:pageopacity="0.0"
     inkscape:pagecheckerboard="0"
     inkscape:deskcolor="#d1d1d1"
     showgrid="false"
     inkscape:zoom="2.9309576"
     inkscape:cx="37.359803"
     inkscape:cy="53.907296"
     inkscape:window-width="1366"
     inkscape:window-height="697"
     inkscape:window-x="239"
     inkscape:window-y="1072"
     inkscape:window-maximized="1"
     inkscape:current-layer="svg4" />
  <path
     fill="#fe7f4c"
     d="m 83.621033,22.443473 c 9.201484,3.846521 19.534297,8.899795 26.774807,18.025857 7.24051,9.126063 11.23788,22.400333 6.26003,31.149283 -4.97785,8.824376 -19.006343,13.048006 -30.244224,18.32755 C 75.249191,95.30113 66.801926,101.63657 57.751287,102.54164 48.625225,103.52212 38.895787,99.07222 27.356224,93.8681 15.892079,88.663986 2.6932298,82.705649 0.80767995,73.730432 -1.07787,64.755215 8.2744572,52.913958 15.514969,43.335366 22.755481,33.68135 27.808755,26.365416 34.596734,21.764675 c 6.787981,-4.600743 15.310668,-6.486293 23.531665,-6.109183 8.296415,0.377113 16.291154,3.016881 25.492634,6.787981 z"
     id="path2"
     style="stroke-width:0.75422" />
</svg>
