<?xml version="1.0" encoding="UTF-8" standalone="no"?>
<svg
   viewBox="0 0 30 30"
   version="1.1"
   id="svg4"
   sodipodi:docname="blob3.svg"
   width="30"
   height="30"
   inkscape:version="1.2.2 (732a01da63, 2022-12-09)"
   xmlns:inkscape="http://www.inkscape.org/namespaces/inkscape"
   xmlns:sodipodi="http://sodipodi.sourceforge.net/DTD/sodipodi-0.dtd"
   xmlns="http://www.w3.org/2000/svg"
   xmlns:svg="http://www.w3.org/2000/svg">
  <defs
     id="defs8" />
  <sodipodi:namedview
     id="namedview6"
     pagecolor="#ffffff"
     bordercolor="#000000"
     borderopacity="0.25"
     inkscape:showpageshadow="2"
     inkscape:pageopacity="0.0"
     inkscape:pagecheckerboard="0"
     inkscape:deskcolor="#d1d1d1"
     showgrid="false"
     inkscape:zoom="16.58"
     inkscape:cx="19.843185"
     inkscape:cy="20.144753"
     inkscape:window-width="1920"
     inkscape:window-height="1009"
     inkscape:window-x="-8"
     inkscape:window-y="-8"
     inkscape:window-maximized="1"
     inkscape:current-layer="svg4" />
  <path
     fill="#fe7f4c"
     d="m 20.623395,5.2594566 c 2.222462,0.9290619 4.718178,2.1495942 6.467,4.3538391 1.748822,2.2042453 2.714318,5.4104193 1.512002,7.5235793 -1.202315,2.131378 -4.590658,3.151524 -7.304977,4.426708 -2.696101,1.2934 -4.736394,2.823619 -6.922422,3.042222 C 12.170753,24.842624 9.8207728,23.767827 7.0335878,22.510861 4.2646186,21.253895 1.0766611,19.81476 0.62123861,17.646949 0.16581611,15.479138 2.4247116,12.619084 4.1735341,10.305538 5.9223566,7.9737748 7.1428888,6.2067354 8.7824098,5.0955045 10.421931,3.9842735 12.480441,3.528851 14.466083,3.6199355 c 2.003858,0.091085 3.934851,0.7286761 6.157312,1.6395211 z"
     id="path2"
     style="stroke-width:0.182169" />
</svg>
