<?xml version="1.0" encoding="UTF-8" standalone="no"?>
<svg
   viewBox="0 0 30 30"
   version="1.1"
   id="svg4"
   sodipodi:docname="blob1.svg"
   width="30"
   height="30"
   inkscape:version="1.2.2 (732a01da63, 2022-12-09)"
   xmlns:inkscape="http://www.inkscape.org/namespaces/inkscape"
   xmlns:sodipodi="http://sodipodi.sourceforge.net/DTD/sodipodi-0.dtd"
   xmlns="http://www.w3.org/2000/svg"
   xmlns:svg="http://www.w3.org/2000/svg">
  <defs
     id="defs8" />
  <sodipodi:namedview
     id="namedview6"
     pagecolor="#ffffff"
     bordercolor="#000000"
     borderopacity="0.25"
     inkscape:showpageshadow="2"
     inkscape:pageopacity="0.0"
     inkscape:pagecheckerboard="0"
     inkscape:deskcolor="#d1d1d1"
     showgrid="false"
     inkscape:zoom="11.72383"
     inkscape:cx="46.614458"
     inkscape:cy="30.621391"
     inkscape:window-width="1920"
     inkscape:window-height="1009"
     inkscape:window-x="-8"
     inkscape:window-y="-8"
     inkscape:window-maximized="1"
     inkscape:current-layer="svg4" />
  <path
     fill="#fe7f4c"
     d="m 23.172295,5.3224096 c 2.304016,1.5783416 5.061578,2.6124273 5.261139,4.2451947 0.181418,1.6146257 -2.177024,3.8460737 -3.555805,5.8416787 -1.396923,1.995603 -1.814186,3.773505 -2.920839,6.041237 -1.124795,2.267733 -2.93898,5.025295 -5.515125,6.077523 C 13.865522,28.562129 10.545561,27.89088 8.0601265,26.058552 5.5928338,24.226225 3.9782084,21.25096 2.9259807,18.076135 1.8737529,14.901311 1.3839228,11.526925 2.7989877,9.241051 4.1959108,6.9733185 7.4795869,5.7759562 10.200866,4.3427493 c 2.703137,-1.4332067 4.862018,-3.1022577 6.857623,-2.8845554 1.977463,0.2177023 3.827932,2.3040159 6.113806,3.8642157 z"
     id="path2"
     style="stroke-width:0.181419" />
</svg>
