<?xml version="1.0" encoding="UTF-8" standalone="no"?>
<svg
   viewBox="0 0 120 120"
   version="1.1"
   id="svg4"
   sodipodi:docname="blob2.svg"
   width="120"
   height="120"
   inkscape:version="1.2.2 (732a01da63, 2022-12-09)"
   xmlns:inkscape="http://www.inkscape.org/namespaces/inkscape"
   xmlns:sodipodi="http://sodipodi.sourceforge.net/DTD/sodipodi-0.dtd"
   xmlns="http://www.w3.org/2000/svg"
   xmlns:svg="http://www.w3.org/2000/svg">
  <defs
     id="defs8" />
  <sodipodi:namedview
     id="namedview6"
     pagecolor="#ffffff"
     bordercolor="#000000"
     borderopacity="0.25"
     inkscape:showpageshadow="2"
     inkscape:pageopacity="0.0"
     inkscape:pagecheckerboard="0"
     inkscape:deskcolor="#d1d1d1"
     showgrid="false"
     inkscape:zoom="4.145"
     inkscape:cx="88.661037"
     inkscape:cy="41.978287"
     inkscape:window-width="1366"
     inkscape:window-height="697"
     inkscape:window-x="239"
     inkscape:window-y="1072"
     inkscape:window-maximized="1"
     inkscape:current-layer="svg4" />
  <path
     fill="#fe7f4c"
     d="m 86.489259,23.568108 c 9.985231,8.400269 19.653471,15.374079 24.170591,24.804576 4.51713,9.430493 3.88315,21.39691 0.55474,31.69913 -3.40766,10.38147 -9.43049,19.098726 -16.642049,26.231036 -7.21155,7.05305 -15.611821,12.36266 -23.774348,11.72868 -8.162527,-0.63399 -16.087309,-7.2908 -25.755546,-9.50974 -9.747483,-2.21894 -21.079921,0 -29.004706,-3.72465 C 8.113158,100.99324 3.7545269,91.245762 5.8149706,82.607742 7.8754137,74.048981 16.513427,66.678932 18.970112,54.633261 21.506041,42.508341 17.939889,25.707798 23.011752,15.08859 28.162859,4.4693789 41.951981,0.03150009 53.997651,2.6466786 66.122572,5.3411049 76.424787,15.167836 86.489259,23.568108 Z"
     id="path2"
     style="stroke-width:0.792478" />
</svg>
