<?xml version="1.0" encoding="UTF-8" standalone="no"?>
<svg
   viewBox="0 0 120 120"
   version="1.1"
   id="svg4"
   sodipodi:docname="blob4.svg"
   width="120"
   height="120"
   inkscape:version="1.2.2 (732a01da63, 2022-12-09)"
   xmlns:inkscape="http://www.inkscape.org/namespaces/inkscape"
   xmlns:sodipodi="http://sodipodi.sourceforge.net/DTD/sodipodi-0.dtd"
   xmlns="http://www.w3.org/2000/svg"
   xmlns:svg="http://www.w3.org/2000/svg">
  <defs
     id="defs8" />
  <sodipodi:namedview
     id="namedview6"
     pagecolor="#ffffff"
     bordercolor="#000000"
     borderopacity="0.25"
     inkscape:showpageshadow="2"
     inkscape:pageopacity="0.0"
     inkscape:pagecheckerboard="0"
     inkscape:deskcolor="#d1d1d1"
     showgrid="false"
     inkscape:zoom="2.9309576"
     inkscape:cx="42.477585"
     inkscape:cy="66.872342"
     inkscape:window-width="1366"
     inkscape:window-height="697"
     inkscape:window-x="239"
     inkscape:window-y="1072"
     inkscape:window-maximized="1"
     inkscape:current-layer="svg4" />
  <path
     fill="#fe7f4c"
     d="m 91.07973,23.481957 c 11.09409,7.3221 24.11116,12.573304 26.99563,21.152737 2.88446,8.653394 -4.5116,20.635015 -9.393,32.616631 -4.95537,11.907664 -7.54399,23.889285 -14.940046,30.693665 -7.322104,6.73041 -19.525606,8.20962 -28.474847,3.77198 C 56.318234,107.20538 50.549305,96.850893 39.01145,91.451768 27.473591,86.052639 10.166806,85.682839 4.2499558,78.878462 -1.6668932,72.148047 3.8801532,58.909094 10.610569,48.628568 17.414946,38.348042 25.476655,30.95198 34.204008,22.890272 43.005324,14.902525 52.472284,6.1751723 61.791321,6.5449758 71.036396,6.8408185 80.059595,16.233817 91.07973,23.481957 Z"
     id="path2"
     style="stroke-width:0.739604" />
</svg>
