<?xml version="1.0" encoding="UTF-8" standalone="no"?>
<svg
   viewBox="0 0 120 120"
   version="1.1"
   id="svg4"
   sodipodi:docname="blob1.svg"
   width="120"
   height="120"
   inkscape:version="1.2.2 (732a01da63, 2022-12-09)"
   xmlns:inkscape="http://www.inkscape.org/namespaces/inkscape"
   xmlns:sodipodi="http://sodipodi.sourceforge.net/DTD/sodipodi-0.dtd"
   xmlns="http://www.w3.org/2000/svg"
   xmlns:svg="http://www.w3.org/2000/svg">
  <defs
     id="defs8" />
  <sodipodi:namedview
     id="namedview6"
     pagecolor="#ffffff"
     bordercolor="#000000"
     borderopacity="0.25"
     inkscape:showpageshadow="2"
     inkscape:pageopacity="0.0"
     inkscape:pagecheckerboard="0"
     inkscape:deskcolor="#d1d1d1"
     showgrid="false"
     inkscape:zoom="4.1449999"
     inkscape:cx="55.126661"
     inkscape:cy="54.041015"
     inkscape:window-width="1366"
     inkscape:window-height="697"
     inkscape:window-x="239"
     inkscape:window-y="1072"
     inkscape:window-maximized="1"
     inkscape:current-layer="svg4" />
  <path
     fill="#fe7f4c"
     d="m 94.369671,18.334382 c 10.023839,6.866721 22.020869,11.365607 22.889079,18.469112 0.78927,7.024579 -9.47135,16.732699 -15.46986,25.414764 C 95.711442,70.900313 93.896101,78.63524 89.081505,88.501218 84.187981,98.367201 76.295201,110.36423 65.087444,114.94204 53.879696,119.44093 39.435898,116.5206 28.622785,108.54889 17.8886,100.57718 10.864023,87.633014 6.2862093,73.820644 1.708395,60.008279 -0.42265615,45.3277 5.7337146,35.382794 11.811157,25.516814 26.097094,20.307579 37.936271,14.072279 49.696518,7.8369813 59.088929,0.57562062 67.770994,1.5227546 76.374129,2.4698886 84.424765,11.546589 94.369671,18.334382 Z"
     id="path2"
     style="stroke-width:0.78928" />
</svg>
