<?xml version="1.0" encoding="UTF-8" standalone="no"?>
<svg
   viewBox="0 0 120 120"
   version="1.1"
   id="svg4"
   sodipodi:docname="no-fill-blob1.svg"
   width="120"
   height="120"
   inkscape:version="1.2.2 (732a01da63, 2022-12-09)"
   xmlns:inkscape="http://www.inkscape.org/namespaces/inkscape"
   xmlns:sodipodi="http://sodipodi.sourceforge.net/DTD/sodipodi-0.dtd"
   xmlns="http://www.w3.org/2000/svg"
   xmlns:svg="http://www.w3.org/2000/svg">
  <defs
     id="defs8" />
  <sodipodi:namedview
     id="namedview6"
     pagecolor="#ffffff"
     bordercolor="#000000"
     borderopacity="0.25"
     inkscape:showpageshadow="2"
     inkscape:pageopacity="0.0"
     inkscape:pagecheckerboard="0"
     inkscape:deskcolor="#d1d1d1"
     showgrid="false"
     inkscape:zoom="4.1449999"
     inkscape:cx="66.948133"
     inkscape:cy="60.554888"
     inkscape:window-width="1366"
     inkscape:window-height="697"
     inkscape:window-x="239"
     inkscape:window-y="1072"
     inkscape:window-maximized="1"
     inkscape:current-layer="svg4" />
  <path
     fill="#fe7f4c"
     d="m 93.903189,20.211026 c 9.706361,6.649238 21.323421,11.005635 22.164131,17.884158 0.76428,6.802096 -9.17137,16.202741 -14.9799,24.609827 -5.884957,8.407077 -7.642803,15.897023 -12.304911,25.450526 -4.738537,9.553506 -12.381336,21.170563 -23.234121,25.603393 -10.852776,4.3564 -24.83911,1.52856 -35.309749,-6.19067 C 19.844427,99.849028 13.042332,87.31483 8.6095072,73.939926 4.1766814,60.565026 2.1131249,46.349411 8.074511,36.71948 13.959469,27.165976 27.792941,22.121727 39.257147,16.083913 50.644924,10.046099 59.739859,3.0147201 68.146944,3.9318564 76.477602,4.8489928 84.273258,13.638216 93.903189,20.211026 Z"
     id="path2"
     style="fill:none;stroke:#fe7f4c;stroke-width:6.3192;stroke-dasharray:none;stroke-opacity:1" />
</svg>
