<?xml version="1.0" encoding="UTF-8" standalone="no"?>
<svg
   viewBox="0 0 120 120"
   version="1.1"
   id="svg4"
   sodipodi:docname="no-fill-blob3.svg"
   width="120"
   height="120"
   inkscape:version="1.2.2 (732a01da63, 2022-12-09)"
   xmlns:inkscape="http://www.inkscape.org/namespaces/inkscape"
   xmlns:sodipodi="http://sodipodi.sourceforge.net/DTD/sodipodi-0.dtd"
   xmlns="http://www.w3.org/2000/svg"
   xmlns:svg="http://www.w3.org/2000/svg">
  <defs
     id="defs8" />
  <sodipodi:namedview
     id="namedview6"
     pagecolor="#ffffff"
     bordercolor="#000000"
     borderopacity="0.25"
     inkscape:showpageshadow="2"
     inkscape:pageopacity="0.0"
     inkscape:pagecheckerboard="0"
     inkscape:deskcolor="#d1d1d1"
     showgrid="false"
     inkscape:zoom="4.145"
     inkscape:cx="49.819059"
     inkscape:cy="65.862485"
     inkscape:window-width="1366"
     inkscape:window-height="697"
     inkscape:window-x="239"
     inkscape:window-y="1072"
     inkscape:window-maximized="1"
     inkscape:current-layer="svg4" />
  <path
     fill="#fe7f4c"
     d="m 82.604913,21.204329 c 8.713102,3.642361 18.497487,8.427425 25.353697,17.069106 6.85621,8.64168 10.64141,21.211397 5.92776,29.495985 C 109.17272,76.125427 95.888823,80.124882 85.247409,85.124204 74.67742,90.194946 66.678507,96.194127 58.108245,97.051152 49.466562,97.979595 40.253531,93.765882 29.326449,88.837984 18.470782,83.910081 5.9724829,78.267994 4.1870119,69.769151 2.4015406,61.270309 11.257478,50.057546 18.113688,40.987349 c 6.85621,-9.141611 11.641273,-16.06924 18.06897,-20.425789 6.427699,-4.356551 14.498027,-6.142022 22.282681,-5.784928 7.856073,0.357095 15.426476,2.856754 24.139574,6.427697 z"
     id="path2"
     style="fill:none;stroke:#fe7f4c;stroke-width:6.31139;stroke-dasharray:none;stroke-opacity:1" />
</svg>
