<?xml version="1.0" encoding="UTF-8" standalone="no"?>
<svg
   viewBox="0 0 30 30"
   version="1.1"
   id="svg4"
   sodipodi:docname="no-fill-blob2.svg"
   width="30"
   height="30"
   inkscape:version="1.2.2 (732a01da63, 2022-12-09)"
   xmlns:inkscape="http://www.inkscape.org/namespaces/inkscape"
   xmlns:sodipodi="http://sodipodi.sourceforge.net/DTD/sodipodi-0.dtd"
   xmlns="http://www.w3.org/2000/svg"
   xmlns:svg="http://www.w3.org/2000/svg">
  <defs
     id="defs8" />
  <sodipodi:namedview
     id="namedview6"
     pagecolor="#ffffff"
     bordercolor="#000000"
     borderopacity="0.25"
     inkscape:showpageshadow="2"
     inkscape:pageopacity="0.0"
     inkscape:pagecheckerboard="0"
     inkscape:deskcolor="#d1d1d1"
     showgrid="false"
     inkscape:zoom="4.145"
     inkscape:cx="89.987937"
     inkscape:cy="41.978287"
     inkscape:window-width="1920"
     inkscape:window-height="1009"
     inkscape:window-x="-8"
     inkscape:window-y="-8"
     inkscape:window-maximized="1"
     inkscape:current-layer="svg4" />
  <path
     fill="#fe7f4c"
     d="m 20.469124,6.7490676 c 2.229648,1.8757346 4.388513,3.4329484 5.397162,5.5387274 1.00865,2.105778 0.867085,4.777814 0.12387,7.078244 -0.760911,2.318126 -2.105778,4.264642 -3.716079,5.857248 -1.6103,1.574909 -3.486035,2.760515 -5.308683,2.61895 -1.822648,-0.141565 -3.592209,-1.627996 -5.751074,-2.123473 -2.17656,-0.495477 -4.7070322,0 -6.4765936,-0.831694 C 2.9681652,24.037681 1.9949065,21.861121 2.4549924,19.932298 2.9150782,18.021173 4.8438997,16.375481 5.3924642,13.685748 5.9587234,10.978319 5.162421,7.2268488 6.2949405,4.855637 7.4451548,2.4844248 10.524191,1.4934705 13.213924,2.0774257 c 2.707429,0.6016508 5.007858,2.7959067 7.2552,4.6716419 z"
     id="path2"
     style="stroke-width:1.5;fill:none;stroke:#fe7f4c;stroke-opacity:1;stroke-dasharray:none" />
</svg>
