<?xml version="1.0" encoding="UTF-8" standalone="no"?>
<svg
   viewBox="0 0 120 120"
   version="1.1"
   id="svg4"
   sodipodi:docname="no-fill-blob4.svg"
   width="120"
   height="120"
   inkscape:version="1.2.2 (732a01da63, 2022-12-09)"
   xmlns:inkscape="http://www.inkscape.org/namespaces/inkscape"
   xmlns:sodipodi="http://sodipodi.sourceforge.net/DTD/sodipodi-0.dtd"
   xmlns="http://www.w3.org/2000/svg"
   xmlns:svg="http://www.w3.org/2000/svg">
  <defs
     id="defs8" />
  <sodipodi:namedview
     id="namedview6"
     pagecolor="#ffffff"
     bordercolor="#000000"
     borderopacity="0.25"
     inkscape:showpageshadow="2"
     inkscape:pageopacity="0.0"
     inkscape:pagecheckerboard="0"
     inkscape:deskcolor="#d1d1d1"
     showgrid="false"
     inkscape:zoom="2.9309576"
     inkscape:cx="32.242022"
     inkscape:cy="62.778117"
     inkscape:window-width="1366"
     inkscape:window-height="697"
     inkscape:window-x="239"
     inkscape:window-y="1072"
     inkscape:window-maximized="1"
     inkscape:current-layer="svg4" />
  <path
     fill="#fe7f4c"
     d="m 89.536678,25.140441 c 10.603742,6.998471 23.045472,12.017578 25.802452,20.21781 2.75697,8.270924 -4.31219,19.722971 -8.97784,31.175013 -4.73634,11.381358 -7.210551,22.833405 -14.279711,29.337036 -6.998476,6.43294 -18.662597,7.84677 -27.216292,3.60527 C 56.311601,105.16338 50.797651,95.266553 39.769757,90.106063 28.741858,84.945569 12.200013,84.592114 6.544681,78.088483 0.88935001,71.655545 6.1912232,59.001739 12.624163,49.1756 19.127794,39.349461 26.833184,32.280297 35.174798,24.574908 43.587106,16.94021 52.635637,8.5985963 61.542783,8.952055 70.379237,9.2348217 79.00362,18.21266 89.536678,25.140441 Z"
     id="path2"
     style="fill:none;stroke:#fe7f4c;stroke-width:6.31298;stroke-dasharray:none;stroke-opacity:1" />
</svg>
