<?xml version="1.0" encoding="UTF-8" standalone="no"?>
<svg
   viewBox="0 0 120 120"
   version="1.1"
   id="svg4"
   sodipodi:docname="no-fill-blob2.svg"
   width="120"
   height="120"
   inkscape:version="1.2.2 (732a01da63, 2022-12-09)"
   xmlns:inkscape="http://www.inkscape.org/namespaces/inkscape"
   xmlns:sodipodi="http://sodipodi.sourceforge.net/DTD/sodipodi-0.dtd"
   xmlns="http://www.w3.org/2000/svg"
   xmlns:svg="http://www.w3.org/2000/svg">
  <defs
     id="defs8" />
  <sodipodi:namedview
     id="namedview6"
     pagecolor="#ffffff"
     bordercolor="#000000"
     borderopacity="0.25"
     inkscape:showpageshadow="2"
     inkscape:pageopacity="0.0"
     inkscape:pagecheckerboard="0"
     inkscape:deskcolor="#d1d1d1"
     showgrid="false"
     inkscape:zoom="2.0725"
     inkscape:cx="130.03619"
     inkscape:cy="92.641737"
     inkscape:window-width="1366"
     inkscape:window-height="697"
     inkscape:window-x="239"
     inkscape:window-y="1072"
     inkscape:window-maximized="1"
     inkscape:current-layer="svg4" />
  <path
     fill="#fe7f4c"
     d="m 84.87941,25.220323 c 9.599515,8.075778 18.89428,14.780198 23.23691,23.846408 4.34264,9.066206 3.73315,20.570375 0.53331,30.474635 -3.27602,9.980447 -9.066203,18.360967 -15.999184,25.217764 -6.932978,6.78061 -15.008757,11.88511 -22.855976,11.27561 -7.84722,-0.60949 -15.465878,-7.00916 -24.760644,-9.14239 -9.37095,-2.13322 -20.265632,0 -27.884293,-3.58077 C 9.5308739,99.654629 5.340611,90.283679 7.3214624,81.979334 9.3023134,73.751187 17.606651,66.665833 19.968438,55.085471 22.406408,43.42892 18.978011,27.27736 23.853955,17.068357 28.806082,6.8593522 42.062548,2.5929028 53.64291,5.1070604 65.299461,7.6974047 75.203716,17.144543 84.87941,25.220323 Z"
     id="path2"
     style="fill:none;stroke:#fe7f4c;stroke-width:6.45809;stroke-dasharray:none;stroke-opacity:1" />
</svg>
