<?xml version="1.0" encoding="UTF-8" standalone="no"?>
<svg
   viewBox="0 0 120 120"
   version="1.1"
   id="svg4"
   sodipodi:docname="no-fill-blob3-light.svg"
   width="120"
   height="120"
   inkscape:version="1.2.2 (732a01da63, 2022-12-09)"
   xmlns:inkscape="http://www.inkscape.org/namespaces/inkscape"
   xmlns:sodipodi="http://sodipodi.sourceforge.net/DTD/sodipodi-0.dtd"
   xmlns="http://www.w3.org/2000/svg"
   xmlns:svg="http://www.w3.org/2000/svg">
  <defs
     id="defs8" />
  <sodipodi:namedview
     id="namedview6"
     pagecolor="#ffffff"
     bordercolor="#000000"
     borderopacity="0.25"
     inkscape:showpageshadow="2"
     inkscape:pageopacity="0.0"
     inkscape:pagecheckerboard="0"
     inkscape:deskcolor="#d1d1d1"
     showgrid="false"
     inkscape:zoom="4.145"
     inkscape:cx="44.02895"
     inkscape:cy="61.037394"
     inkscape:window-width="1366"
     inkscape:window-height="697"
     inkscape:window-x="239"
     inkscape:window-y="1072"
     inkscape:window-maximized="1"
     inkscape:current-layer="svg4" />
  <path
     fill="#fe7f4c"
     d="m 82.49561,23.191467 c 8.701462,3.637495 18.47278,8.416167 25.31982,17.046303 6.84705,8.630137 10.6272,21.183062 5.91985,29.456583 -4.70735,8.344845 -17.973506,12.338956 -28.600704,17.3316 C 74.578707,92.089921 66.590479,98.08109 58.031666,98.93697 49.401528,99.86417 40.200804,95.656087 29.288319,90.734772 18.447154,85.813452 5.9655506,80.178902 4.1824649,71.691413 2.3993786,63.203924 11.243485,52.006139 18.090537,42.94806 24.937588,33.818661 29.716258,26.900286 36.135368,22.549556 c 6.419113,-4.350731 14.478661,-6.133817 22.252915,-5.777199 7.845579,0.356617 15.405869,2.852938 24.107327,6.41911 z"
     id="path2"
     style="fill:none;stroke:#f7ecdf;stroke-width:6.30296;stroke-dasharray:none;stroke-opacity:1" />
</svg>
