<?xml version="1.0" encoding="UTF-8" standalone="no"?>
<svg
   viewBox="0 0 30 30"
   version="1.1"
   id="svg4"
   sodipodi:docname="no-fill-blob3.svg"
   width="30"
   height="30"
   inkscape:version="1.2.2 (732a01da63, 2022-12-09)"
   xmlns:inkscape="http://www.inkscape.org/namespaces/inkscape"
   xmlns:sodipodi="http://sodipodi.sourceforge.net/DTD/sodipodi-0.dtd"
   xmlns="http://www.w3.org/2000/svg"
   xmlns:svg="http://www.w3.org/2000/svg">
  <defs
     id="defs8" />
  <sodipodi:namedview
     id="namedview6"
     pagecolor="#ffffff"
     bordercolor="#000000"
     borderopacity="0.25"
     inkscape:showpageshadow="2"
     inkscape:pageopacity="0.0"
     inkscape:pagecheckerboard="0"
     inkscape:deskcolor="#d1d1d1"
     showgrid="false"
     inkscape:zoom="16.58"
     inkscape:cx="19.843185"
     inkscape:cy="20.144753"
     inkscape:window-width="1920"
     inkscape:window-height="1009"
     inkscape:window-x="-8"
     inkscape:window-y="-8"
     inkscape:window-maximized="1"
     inkscape:current-layer="svg4" />
  <path
     fill="#fe7f4c"
     d="m 20.229369,5.8643512 c 2.070803,0.8656633 4.396213,2.0029074 6.025696,4.0567361 1.629484,2.0538287 2.529095,5.0412157 1.408824,7.0101757 -1.12027,1.985934 -4.277394,2.936466 -6.80649,4.124632 -2.512121,1.20514 -4.413186,2.630938 -6.450041,2.834623 C 12.353529,24.111177 10.16391,23.109723 7.5669206,21.938532 4.9869039,20.76734 2.0164904,19.426411 1.5921457,17.40653 1.1678009,15.386649 3.2725509,12.721763 4.902035,10.566091 6.531519,8.3934462 7.668763,6.7469883 9.1964042,5.7115871 10.724046,4.6761857 12.642084,4.2518409 14.492227,4.3367099 c 1.867117,0.084869 3.66634,0.6789517 5.737142,1.5276413 z"
     id="path2"
     style="fill:none;stroke:#fe7f4c;stroke-width:1.5;stroke-opacity:1;stroke-dasharray:none" />
</svg>
