<?xml version="1.0" encoding="UTF-8" standalone="no"?>
<!-- Created with Inkscape (http://www.inkscape.org/) -->

<svg
   width="265"
   height="60"
   version="1.1"
   viewBox="0 0 72.018701 16.306124"
   xml:space="preserve"
   id="svg86"
   sodipodi:docname="Daniel-Dogs-Extend.svg"
   inkscape:version="1.2.2 (732a01da63, 2022-12-09)"
   xmlns:inkscape="http://www.inkscape.org/namespaces/inkscape"
   xmlns:sodipodi="http://sodipodi.sourceforge.net/DTD/sodipodi-0.dtd"
   xmlns="http://www.w3.org/2000/svg"
   xmlns:svg="http://www.w3.org/2000/svg"><defs
     id="defs90" /><sodipodi:namedview
     id="namedview88"
     pagecolor="#ffffff"
     bordercolor="#000000"
     borderopacity="0.25"
     inkscape:showpageshadow="2"
     inkscape:pageopacity="0.0"
     inkscape:pagecheckerboard="0"
     inkscape:deskcolor="#d1d1d1"
     showgrid="false"
     inkscape:zoom="1.0926616"
     inkscape:cx="-10.524759"
     inkscape:cy="49.420609"
     inkscape:window-width="1366"
     inkscape:window-height="697"
     inkscape:window-x="239"
     inkscape:window-y="1072"
     inkscape:window-maximized="1"
     inkscape:current-layer="svg86" /><circle
     cx="8.0562897"
     cy="8.2221184"
     r="7.3016891"
     fill="none"
     stroke="#fe7f4c"
     stroke-width="1.17267"
     id="circle4" /><path
     d="M 8.0574061,0.93745878 A 7.2838218,7.2838218 0 0 0 0.77358444,8.2212803 7.2838218,7.2838218 0 0 0 8.0574061,15.505103 7.2838218,7.2838218 0 0 0 15.341229,8.2212803 7.2838218,7.2838218 0 0 0 8.0574061,0.93745878 Z M 13.530631,6.6707114 13.769544,7.1914111 14.333935,7.2898061 13.91255,7.677951 13.99341,8.2451344 13.494034,7.9642954 12.979593,8.2164789 13.092354,7.6547677 12.693562,7.243423 13.262644,7.177117 13.53064,6.6707281 Z M 2.2522923,6.6802595 2.4912318,7.2009871 3.0556233,7.2993485 2.6342114,7.6874954 2.7150621,8.2546784 2.2157141,7.9738677 1.7012456,8.226024 1.8140346,7.6643123 1.4152419,7.2529677 1.9843236,7.1866623 2.2522923,6.6802733 Z"
     fill="#fe7f4c"
     stroke="#ffffff"
     stroke-width="0.137982"
     id="path6" /><g
     transform="matrix(-0.09649599,-0.11648531,0.11648531,-0.09649599,4.4763008,34.500273)"
     fill="#353535"
     stroke-width="3.8816"
     style="white-space:pre"
     aria-label="DANIEL DOGS"
     id="g28"><path
       d="m 155.36,121.57 6.9937,0.52235 -0.18981,2.5414 q -0.0853,1.1426 -0.61554,1.8756 -0.52036,0.73375 -1.3469,1.0583 -0.81672,0.32531 -1.7821,0.25321 -1.0638,-0.0795 -1.8202,-0.56188 -0.7564,-0.48242 -1.1317,-1.293 -0.37603,-0.8007 -0.29731,-1.8547 z m 3.1617,4.8817 q 0.67967,0.0508 1.2103,-0.15724 0.54046,-0.20726 0.8607,-0.64889 0.33009,-0.4409 0.37938,-1.1009 l 0.0883,-1.182 -4.61,-0.34431 -0.0883,1.182 q -0.05,0.66982 0.21091,1.1549 0.27078,0.48577 0.77519,0.76117 0.51352,0.28599 1.1735,0.33528 z"
       id="path8" /><path
       d="m 161.16,131.77 -0.3067,1.3484 -7.4103,0.95847 0.31109,-1.3677 1.8494,-0.24794 0.5433,-2.3887 -1.5624,-1.0138 0.31109,-1.3677 z m -4.5675,0.66298 3.0368,-0.30203 -2.5987,-1.6243 z"
       id="path10" /><path
       d="m 156.86,137.76 -4.1797,-1.6788 0.50806,-1.2649 6.5079,2.6139 -0.40498,1.0083 -5.6408,1.641 4.2805,1.7193 -0.50806,1.2649 -6.4987,-2.6102 0.42338,-1.0541 z"
       id="path12" /><path
       d="m 150.18,141.72 6.1634,3.3462 -0.6504,1.198 -6.1634,-3.3462 z"
       id="path14" /><path
       d="m 147.1,148.92 -0.99013,-0.66946 2.7276,-4.0342 5.8098,3.9282 -2.6778,3.9605 -0.99013,-0.66946 1.9143,-2.8313 -1.3993,-0.94609 -1.6543,2.4467 -0.91648,-0.61967 1.6543,-2.4467 -1.5138,-1.0236 z"
       id="path16" /><path
       d="m 145.42,149.07 5.2701,4.6272 -0.89937,1.0243 -4.372,-3.8386 -2.3592,2.687 -0.89815,-0.78858 z"
       id="path18" /><path
       d="m 140.03,154.77 4.298,5.5419 -2.0138,1.5618 q -0.90543,0.70221 -1.8048,0.79972 -0.89335,0.10532 -1.6881,-0.29083 -0.7887,-0.38835 -1.382,-1.1533 -0.65378,-0.84298 -0.80242,-1.7277 -0.14865,-0.88474 0.20163,-1.7064 0.34247,-0.81562 1.1776,-1.4633 z m -1.5057,5.6178 q 0.4177,0.53858 0.92762,0.79313 0.51597,0.26235 1.0584,0.20419 0.54846,-0.0503 1.0714,-0.45594 l 0.93665,-0.72642 -2.833,-3.653 -0.93665,0.72642 q -0.53077,0.41164 -0.71603,0.93032 -0.17919,0.52648 -0.0457,1.0855 0.13176,0.57283 0.53734,1.0958 z"
       id="path20" /><path
       d="m 131.72,160.42 q 0.67666,-0.36844 1.3736,-0.4105 0.68824,-0.0373 1.3282,0.18781 0.63601,0.23855 1.1552,0.67566 0.52391,0.4458 0.84511,1.0357 0.33538,0.61594 0.41214,1.294 0.0728,0.69142 -0.0901,1.3425 -0.16683,0.66445 -0.57638,1.2136 -0.41349,0.56257 -1.0728,0.92156 -0.66799,0.36372 -1.361,0.39238 -0.70164,0.0334 -1.3376,-0.20516 -0.63601,-0.23855 -1.1552,-0.67567 -0.51919,-0.43711 -0.8404,-1.027 -0.33065,-0.60726 -0.41213,-1.294 -0.0768,-0.67802 0.0901,-1.3425 0.16287,-0.65104 0.5811,-1.2049 0.40954,-0.54917 1.0602,-0.90344 z m 3.4876,2.15 q -0.21729,-0.39906 -0.54186,-0.70596 -0.32456,-0.3069 -0.71072,-0.47904 -0.39011,-0.15874 -0.81424,-0.15274 -0.42807,0.0194 -0.85316,0.25085 -0.43375,0.23618 -0.67761,0.5939 -0.23913,0.3664 -0.30408,0.78417 -0.0602,0.42644 0.0254,0.8522 0.0817,0.43917 0.28478,0.8122 0.21729,0.39905 0.54581,0.69255 0.32457,0.3069 0.71467,0.46564 0.38616,0.17214 0.81424,0.15275 0.42413,-0.006 0.84053,-0.23273 0.44243,-0.2409 0.68157,-0.6073 0.23518,-0.353 0.30013,-0.77077 0.065,-0.41777 -0.012,-0.84825 -0.0856,-0.42576 -0.29345,-0.80747 z"
       id="path22" /><path
       d="m 124.98,163.4 q 0.64356,-0.22444 1.3129,-0.16496 0.66001,0.0627 1.2578,0.36687 0.59167,0.31672 1.0488,0.84772 0.45713,0.531 0.70764,1.2492 0.23745,0.68086 0.20312,1.3624 -0.0311,0.69081 -0.31005,1.3007 -0.27897,0.60989 -0.77549,1.076 -0.49651,0.46607 -1.1867,0.70677 -0.93268,0.32527 -1.7348,0.15516 -0.80815,-0.15753 -1.3716,-0.69331 l 0.71345,-1.0439 q 0.42422,0.4065 0.97232,0.50827 0.53876,0.10502 1.0704,-0.0804 0.41971,-0.14637 0.703,-0.44393 0.28329,-0.29756 0.42778,-0.69317 0.14448,-0.39561 0.14452,-0.84546 -0.009,-0.44659 -0.16543,-0.89428 -0.16589,-0.47567 -0.44566,-0.82793 -0.28909,-0.34901 -0.65433,-0.55639 -0.37457,-0.20413 -0.79079,-0.25774 -0.41297,-0.0443 -0.84201,0.10535 -0.50364,0.17564 -0.86958,0.59618 -0.37527,0.42379 -0.60068,1.0673 l -0.44237,-1.2684 q 0.51783,-1.1849 1.6277,-1.5719 z m -0.97173,3.153 1.3337,-0.46514 0.32853,0.94201 -2.397,0.83595 -1.1872,-3.4043 1.0633,-0.37081 z"
       id="path24" /><path
       d="m 117.8,170.57 q 0.0808,0.055 0.28737,0.13636 0.19683,0.0832 0.47914,0.1401 0.2726,0.0587 0.58819,0.0791 0.31743,0.0301 0.62795,-0.029 0.5434,-0.1034 0.78603,-0.36072 0.23293,-0.25548 0.16277,-0.62422 -0.0535,-0.2814 -0.2596,-0.41313 -0.20605,-0.13173 -0.57754,-0.1817 -0.37149,-0.05 -0.92134,-0.0861 -0.71064,-0.0357 -1.2517,-0.18414 -0.5489,-0.13688 -0.88476,-0.47517 -0.34371,-0.32675 -0.46372,-0.95749 -0.10524,-0.5531 0.0228,-0.98973 0.12992,-0.42692 0.4428,-0.73783 0.31288,-0.3109 0.74679,-0.51413 0.43577,-0.19352 0.95006,-0.29137 0.5143,-0.0979 1.0489,-0.089 0.53461,0.009 1.047,0.11249 0.51426,0.1133 0.96565,0.31901 l -0.3722,1.2674 q -0.10395,-0.0707 -0.35483,-0.1738 -0.24904,-0.0934 -0.59696,-0.17801 -0.34607,-0.0749 -0.74297,-0.1 -0.39691,-0.025 -0.78506,0.0488 -0.5434,0.1034 -0.78973,0.34131 -0.24632,0.23792 -0.1817,0.57755 0.0591,0.31051 0.3155,0.44271 0.25642,0.1322 0.67827,0.18265 0.4237,0.0601 0.99665,0.11201 0.68523,0.0607 1.1644,0.20077 0.48098,0.1498 0.76093,0.45851 0.27995,0.30871 0.37965,0.83271 0.13479,0.70837 -0.10467,1.2466 -0.24731,0.54981 -0.77366,0.90134 -0.52451,0.36123 -1.2232,0.49417 -0.48518,0.0923 -0.93245,0.0668 -0.45698,-0.0237 -0.86866,-0.12632 -0.41168,-0.10265 -0.75126,-0.24919 z"
       id="path26" /></g><g
     transform="matrix(-0.13520158,0.0455109,-0.0455109,-0.13520158,47.458724,14.936413)"
     fill="#353535"
     stroke-width="3.8816"
     style="white-space:pre"
     aria-label="HOTEL PARA CACHORRO"
     id="g64"><path
       d="m 285.22,127.18 6.9904,-0.56507 0.10903,1.3489 -2.9832,0.24114 0.25627,3.1703 2.9832,-0.24115 0.10983,1.3587 -6.9904,0.56506 -0.10983,-1.3587 2.8257,-0.22841 -0.25627,-3.1703 -2.8257,0.22841 z"
       id="path30" /><path
       d="m 291.3,122.24 q 0.18567,0.74776 0.0504,1.4327 -0.13764,0.67538 -0.51706,1.2378 -0.39139,0.55518 -0.94543,0.94719 -0.56362,0.39439 -1.2155,0.55626 -0.68065,0.16901 -1.3561,0.0721 -0.6874,-0.10412 -1.2762,-0.42609 -0.6008,-0.32917 -1.0288,-0.8641 -0.43995,-0.54213 -0.62086,-1.2707 -0.18329,-0.73817 -0.0361,-1.4159 0.14484,-0.68733 0.53623,-1.2425 0.39139,-0.55517 0.94543,-0.94719 0.55403,-0.39202 1.2059,-0.55388 0.67106,-0.16663 1.3561,-0.0721 0.67543,0.0969 1.2762,0.42608 0.58883,0.32197 1.0192,0.86649 0.42797,0.53493 0.6065,1.2539 z m -2.9608,2.8318 q 0.44099,-0.1095 0.81989,-0.34607 0.3789,-0.23657 0.64296,-0.56676 0.25209,-0.33739 0.35337,-0.74929 0.0893,-0.41911 -0.0273,-0.88885 -0.11902,-0.47934 -0.40359,-0.80561 -0.29415,-0.32389 -0.68199,-0.49221 -0.39742,-0.16594 -0.83101,-0.19059 -0.44555,-0.0319 -0.85777,0.0705 -0.44099,0.10949 -0.80793,0.35327 -0.3789,0.23657 -0.63099,0.57396 -0.26405,0.33019 -0.35337,0.74929 -0.10127,0.41191 0.013,0.87207 0.1214,0.48892 0.41556,0.81281 0.28219,0.31668 0.67002,0.485 0.38784,0.16832 0.8238,0.20256 0.43359,0.0247 0.8554,-0.0801 z"
       id="path32" /><path
       d="m 282.68,115.49 0.85908,2.0712 5.3741,-2.2291 0.51847,1.25 -5.374,2.2291 0.85908,2.0712 -1.104,0.45792 -2.2366,-5.3923 z"
       id="path34" /><path
       d="m 284.14,108.89 1.0329,-0.60144 2.4505,4.2082 -6.0606,3.5291 -2.4058,-4.1314 1.0329,-0.60145 1.7198,2.9535 1.4597,-0.84998 -1.4862,-2.5523 0.95603,-0.55671 1.4862,2.5523 1.5792,-0.91957 z"
       id="path36" /><path
       d="m 284.54,107.42 -5.5678,4.2644 -0.82886,-1.0822 4.6189,-3.5377 -2.1743,-2.8388 0.94887,-0.72675 z"
       id="path38" /><path
       d="m 279.52,101.4 -4.7406,5.1683 -2.1911,-2.0098 q -0.35669,-0.32717 -0.5216,-0.74651 -0.16492,-0.41934 -0.15628,-0.86714 0.001,-0.45449 0.15804,-0.87373 0.15668,-0.41924 0.45046,-0.73953 0.40062,-0.43676 0.965,-0.64289 0.56437,-0.20613 1.1481,-0.12646 0.5837,0.0797 1.0714,0.52703 l 1.2229,1.1217 1.5891,-1.7325 z m -3.4016,1.6919 -1.1647,-1.0683 q -0.18198,-0.16692 -0.42105,-0.19855 -0.23906,-0.0316 -0.50001,0.0775 -0.26763,0.11642 -0.49465,0.36392 -0.24704,0.26934 -0.31873,0.55208 -0.079,0.27606 -0.006,0.51758 0.0661,0.23485 0.24805,0.40178 l 1.121,1.0282 z"
       id="path40" /><path
       d="m 269.74,102.3 -1.1362,-0.78835 1.8799,-7.2317 1.1524,0.79962 -0.46108,1.8081 2.0126,1.3965 1.5242,-1.0704 1.1524,0.79962 z m 1.0918,-4.4844 -0.8546,2.9297 2.4777,-1.8035 z"
       id="path42" /><path
       d="m 269.79,93.932 -3.1139,6.284 -2.7791,-1.3771 q -0.43369,-0.2149 -0.70885,-0.57173 -0.28402,-0.36122 -0.40043,-0.79372 -0.12525,-0.43688 -0.0827,-0.87879 0.0337,-0.44629 0.22671,-0.83572 0.19736,-0.39828 0.52318,-0.69984 0.31257,-0.29709 0.7052,-0.44428 0.39263,-0.14719 0.81237,-0.1266 l -0.26282,-3.0736 1.3453,0.66664 0.2484,2.7468 1.2214,0.60524 1.0438,-2.1065 z m -2.7959,2.5722 -1.5312,-0.75874 q -0.23012,-0.11403 -0.47292,-0.06898 -0.24718,0.0539 -0.46742,0.23139 -0.22024,0.17749 -0.36059,0.46071 -0.14911,0.30092 -0.13485,0.58359 0.01,0.29152 0.13881,0.52077 0.12008,0.22486 0.34135,0.33451 l 1.4781,0.73242 z"
       id="path44" /><path
       d="m 259.86,97.189 -1.3144,-0.42994 -0.26992,-7.4672 1.3331,0.43608 0.0761,1.8644 2.3283,0.76161 1.1538,-1.4621 1.3331,0.43608 z m -0.23827,-4.6092 0.0202,3.0517 1.8574,-2.4375 z"
       id="path46" /><path
       d="m 255.47,92.34 q -0.0759,0.63756 -0.37379,1.2189 -0.30892,0.58994 -0.80982,1.0377 -0.50207,0.45754 -1.1746,0.67595 -0.67373,0.22822 -1.4878,0.13137 -0.96124,-0.11435 -1.6075,-0.61897 -0.65604,-0.50578 -0.91883,-1.2234 l 1.1249,-0.59234 q 0.12988,0.41335 0.38749,0.67278 0.25644,0.26925 0.56962,0.39603 0.31202,0.13659 0.6259,0.17393 0.51004,0.06068 0.91708,-0.0998 0.39723,-0.16164 0.69193,-0.46479 0.2947,-0.30315 0.47122,-0.69995 0.16671,-0.39796 0.21572,-0.80992 0.0548,-0.461 -0.0409,-0.91009 -0.097,-0.43927 -0.32211,-0.80427 -0.23614,-0.35636 -0.58553,-0.59687 -0.36036,-0.23187 -0.81156,-0.28555 -0.32368,-0.03851 -0.67001,0.02971 -0.34633,0.06822 -0.65878,0.26979 -0.31246,0.20157 -0.51374,0.55562 l -1.0325,-0.76942 q 0.26782,-0.49535 0.78181,-0.80226 0.50418,-0.30808 1.1051,-0.42559 0.60087,-0.11752 1.1698,-0.04984 0.74546,0.08868 1.3272,0.46626 0.5806,0.38739 0.97112,0.95111 0.37954,0.57236 0.55872,1.2403 0.1682,0.67654 0.09,1.3337 z"
       id="path48" /><path
       d="m 247.09,95.145 -1.3825,0.03426 -2.751,-6.9472 1.4022,-0.03475 0.69505,1.7317 2.4489,-0.06069 0.59855,-1.7637 1.4022,-0.03475 z m -1.7656,-4.2643 1.0394,2.8693 0.93553,-2.9183 z"
       id="path50" /><path
       d="m 243.47,91.767 q 0.10849,0.63282 -0.012,1.2748 -0.1285,0.65341 -0.48149,1.225 -0.35131,0.58137 -0.93406,0.98193 -0.58108,0.4103 -1.3891,0.54884 -0.95411,0.16357 -1.7171,-0.13656 -0.77275,-0.29846 -1.2287,-0.91181 l 0.91015,-0.88763 q 0.242,0.35938 0.56273,0.5349 0.32239,0.18525 0.65869,0.2178 0.33797,0.04228 0.64952,-0.01113 0.50626,-0.08679 0.8509,-0.35634 0.3349,-0.26788 0.53128,-0.64229 0.19638,-0.37441 0.25284,-0.80501 0.0467,-0.42893 -0.0234,-0.83783 -0.0785,-0.45758 -0.29793,-0.86091 -0.2178,-0.3936 -0.53742,-0.67955 -0.32768,-0.27454 -0.73102,-0.40583 -0.41141,-0.11988 -0.85925,-0.0431 -0.32128,0.05508 -0.63393,0.21892 -0.31266,0.16384 -0.55494,0.4459 -0.24227,0.28206 -0.33462,0.67872 l -1.2086,-0.44421 q 0.11599,-0.55104 0.52155,-0.99138 0.39582,-0.43867 0.93851,-0.72213 0.5427,-0.28346 1.1074,-0.38026 0.73992,-0.12685 1.405,0.0698 0.66676,0.20639 1.2014,0.63587 0.52657,0.44088 0.88819,1.0303 0.35356,0.60083 0.46539,1.2531 z"
       id="path52" /><path
       d="m 232.45,98.109 -2.256,-6.6405 1.2813,-0.43531 0.96276,2.8339 3.0116,-1.0231 -0.96277,-2.8339 1.2907,-0.43849 2.256,6.6405 -1.2907,0.43849 -0.91192,-2.6842 -3.0116,1.0231 0.91192,2.6842 z"
       id="path54" /><path
       d="m 226.18,93.425 q 0.6788,-0.3645 1.376,-0.40249 0.68845,-0.03333 1.3271,0.19554 0.63461,0.24224 1.1512,0.68238 0.5213,0.44884 0.83907,1.0406 0.33178,0.61788 0.40459,1.2963 0.0688,0.69183 -0.0979,1.3419 -0.17069,0.66346 -0.58343,1.2102 -0.41677,0.56015 -1.0782,0.9153 -0.67009,0.35982 -1.3632,0.38444 -0.70182,0.0293 -1.3364,-0.21295 -0.63461,-0.24224 -1.1512,-0.68238 -0.51663,-0.44013 -0.83439,-1.0319 -0.32712,-0.60918 -0.4046,-1.2963 -0.0728,-0.67846 0.0979,-1.3419 0.16667,-0.65008 0.58811,-1.2015 0.41274,-0.54677 1.0654,-0.89725 z m 3.475,2.1703 q -0.21496,-0.40032 -0.53773,-0.7091 -0.32278,-0.30878 -0.70792,-0.48317 -0.38918,-0.16101 -0.81334,-0.15749 -0.42818,0.0169 -0.8546,0.24588 -0.43513,0.23365 -0.68106,0.58995 -0.24127,0.365 -0.30865,0.78238 -0.0627,0.42609 0.0204,0.85234 0.0791,0.43963 0.28005,0.81384 0.21496,0.40032 0.54176,0.69572 0.32277,0.30878 0.71195,0.4698 0.38515,0.17439 0.81333,0.15749 0.42416,-0.0035 0.84188,-0.22783 0.44382,-0.23832 0.68509,-0.60332 0.23723,-0.35162 0.30461,-0.76901 0.0674,-0.41738 -0.007,-0.84831 -0.0831,-0.42625 -0.28875,-0.80916 z"
       id="path56" /><path
       d="m 222.33,95.719 4.2348,5.5903 -2.4723,1.8729 q -0.3858,0.29226 -0.82791,0.37934 -0.44999,0.093 -0.88899,0.004 -0.44688,-0.0828 -0.82337,-0.31806 -0.38437,-0.2293 -0.64681,-0.57574 -0.2684,-0.35431 -0.39294,-0.78044 -0.12644,-0.41229 -0.083,-0.82934 0.0434,-0.41706 0.24911,-0.78353 l -2.8681,-1.136 1.1968,-0.90661 2.5691,1.0031 1.0866,-0.82311 -1.4196,-1.8739 z m 1.0547,3.6497 -1.3621,1.0319 q -0.20471,0.15508 -0.27272,0.39247 -0.062,0.24527 -10e-4,0.52156 0.0606,0.27629 0.25146,0.52825 0.2028,0.2677 0.46214,0.38104 0.26531,0.12121 0.528,0.10809 0.25481,-0.007 0.45166,-0.15626 l 1.3149,-0.99608 z"
       id="path58" /><path
       d="m 217.16,99.774 4.9955,4.9224 -2.177,2.2093 q -0.33972,0.34476 -0.76469,0.49458 -0.4319,0.15685 -0.87911,0.1322 -0.45414,-0.0176 -0.86058,-0.19621 -0.41337,-0.17158 -0.72295,-0.47663 -0.31662,-0.31198 -0.5012,-0.71574 -0.18448,-0.38979 -0.20154,-0.80875 -0.0171,-0.41897 0.13372,-0.81123 l -3.0017,-0.71128 1.0538,-1.0695 2.6868,0.6228 0.95675,-0.97096 -1.6746,-1.65 z m 1.5692,3.4599 -1.1994,1.2172 q -0.18025,0.18294 -0.21337,0.42765 -0.0261,0.25165 0.0736,0.51634 0.0997,0.26468 0.32489,0.48654 0.23922,0.23572 0.51218,0.31054 0.28,0.0817 0.53806,0.031 0.25113,-0.0438 0.42446,-0.21966 l 1.1578,-1.175 z"
       id="path60" /><path
       d="m 210.84,106.88 q 0.44991,-0.62546 1.0596,-0.96561 0.60395,-0.33214 1.2782,-0.40683 0.67653,-0.0609 1.3339,0.10779 0.66542,0.17446 1.2107,0.56669 0.56933,0.40954 0.93256,0.98718 0.36547,0.59143 0.50108,1.2487 0.13785,0.67106 0.007,1.3435 -0.12859,0.68624 -0.56697,1.2957 -0.44414,0.61744 -1.0561,0.94381 -0.61774,0.33438 -1.2943,0.39528 -0.67654,0.0609 -1.3339,-0.10779 -0.65736,-0.16869 -1.2027,-0.56092 -0.56131,-0.40376 -0.93255,-0.98717 -0.36323,-0.57765 -0.50108,-1.2487 -0.1356,-0.65726 0.001,-1.3377 0.13085,-0.67246 0.56345,-1.2739 z m 4.075,0.42466 q -0.36886,-0.26533 -0.79442,-0.4011 -0.42555,-0.13576 -0.84816,-0.12339 -0.42036,0.0262 -0.79992,0.2155 -0.37731,0.20314 -0.65994,0.59606 -0.28841,0.40093 -0.35299,0.82902 -0.0566,0.43386 0.0661,0.83846 0.13069,0.41037 0.39249,0.75687 0.26405,0.36029 0.60885,0.60832 0.36886,0.26533 0.79217,0.38731 0.42556,0.13577 0.84591,0.10961 0.42261,-0.0124 0.79992,-0.21551 0.37956,-0.18935 0.65643,-0.57424 0.29417,-0.40896 0.35073,-0.84282 0.0588,-0.42007 -0.0639,-0.82467 -0.12266,-0.4046 -0.3787,-0.75912 -0.2618,-0.3465 -0.61462,-0.6003 z"
       id="path62" /></g><g
     transform="matrix(0.1331189,0,0,0.1331189,-6.8028187,-7.8034067)"
     id="g80"><path
       d="m 107.9,145.86 c -0.37264,-0.55462 -0.82069,-1.4217 -1.1838,-2.7184 -0.2071,-0.73968 -0.42277,-1.9686 -0.57327,-2.7225 -0.4248,-2.1277 -0.83343,-3.478 -1.8767,-4.539 -0.69856,-0.71042 -2.1526,-1.4761 -2.9952,-2.0136 -1.1735,-0.74852 -2.2822,-1.5661 -3.0006,-2.3442 -0.66041,-0.7153 -0.70609,-2.3553 -0.5297,-3.3324 0.086,-0.4764 0.12522,-0.95638 -0.0094,-1.4289 -0.2373,-0.83264 -1.478,-1.7108 -2.2156,-2.1909 -1.3588,-0.88429 -2.9688,-1.8593 -4.114,-3.375 -0.5575,-0.73785 -1.1802,-2.1352 -1.3182,-3.0492 -0.3041,-2.0135 0.38331,-3.9696 1.2017,-5.5031 0.31341,-0.58731 0.90982,-1.4896 1.2314,-2.0726 0.09057,-0.16419 0.16852,-0.31608 0.23582,-0.46039 0.66474,-1.4255 0.5101,-4.1389 1.1326,-5.5885 0.3674,-0.85551 0.89139,-1.6327 1.5764,-2.1332 0.45479,-0.3323 1.3552,-0.58785 1.8593,-0.84344 1.9258,-0.97626 3.7543,-3.0275 5.114,-4.5412 0.90504,-1.0075 3.8984,-1.9889 6.2799,-1.7167 0.82201,0.09395 2.0899,0.63571 2.7136,1.1794 0.56239,0.49028 0.96806,1.0497 1.3566,1.564 0.80439,1.0647 2.932,1.7563 4.2878,1.8101 0.97677,0.03876 2.0328,0.08568 2.9504,0.30679 1.2899,0.31081 2.702,2.1374 3.4889,3.2464 0.84643,1.1928 1.5908,2.4676 1.6056,4.0172 0.005,0.53639 -0.16446,1.3966 -0.21907,1.9311 -0.23572,2.3075 0.0347,5.2368 0.87538,7.4727 0.34531,0.9184 1.1912,2.3045 1.3609,3.2664 0.45368,2.5724 -0.0787,6.5584 -0.12456,9.2714 -0.0166,0.98164 0.20958,2.5642 0.45615,3.5154 0.46044,1.7762 1.143,3.6874 1.5435,5.0562 0.22952,0.7844 0.39318,2.1045 0.5211,2.9129 0.0963,0.6084 0.20926,1.3042 0.29879,1.9927 0.23191,1.7835 -1.4595,3.7101 -3.2524,3.8235 -4.8162,0.30461 -13.669,0.15293 -16.8,0.0858 -0.62648,-0.0134 -1.529,-0.36036 -1.8772,-0.87871 z"
       fill="#353535"
       id="path66" /><g
       fill="#ffffff"
       id="g78"><path
         d="m 97.31,122.52 c 0,0 -3.3883,0.0317 -3.6733,-3.2616 -0.285,-3.2933 1.4566,-4.465 2.28,-4.5283 0.82332,-0.0633 2.4066,-0.31666 3.23,1.71 0.82332,2.0266 1.425,3.6733 0.34833,4.7183 -1.0767,1.045 -2.185,1.3616 -2.185,1.3616 z"
         id="path68" /><path
         d="m 95.964,108.49 c -0.09389,-0.81258 -0.16222,-1.9285 0.0074,-2.8274 0.18421,-0.97617 1.8094,-1.811 2.8408,-1.9956 0.71168,-0.12738 1.3207,-0.035 1.909,0.64006 0.27935,0.32055 0.62072,0.92582 0.81982,1.3022 0.41662,0.78757 0.66546,1.432 0.7673,1.9566 0.13389,0.68972 -0.40663,1.7842 -0.85843,2.3419 -0.34705,0.42836 -0.78254,0.84463 -1.2967,1.0683 -0.36374,0.15819 -1.0225,0.18744 -1.4217,0.17418 -0.76394,-0.0254 -1.52,-0.17327 -2.0346,-0.62027 -0.45725,-0.39722 -0.66227,-1.429 -0.73287,-2.04 z"
         id="path70" /><path
         d="m 105.77,105.72 c 0,0 -2.5966,-2.4383 -0.34833,-5.6999 2.2483,-3.2616 5.2883,-0.03167 5.6366,1.6466 0.3483,1.67827 0.66499,3.99 -1.2983,4.7183 -1.9633,0.72832 -3.2933,0.22166 -3.99,-0.66499 z"
         id="path72" /><path
         d="m 115.96,103.76 c 0,0 -2.2166,2.1533 -0.41167,4.8133 1.805,2.66 5.1933,1.0133 5.1933,1.0133 0,0 2.0266,-0.79166 1.6466,-2.6916 -0.38,-1.9 -0.91832,-3.7683 -2.5016,-4.3699 -1.5833,-0.60166 -2.9766,0.0633 -3.9266,1.235 z"
         id="path74" /><path
         d="m 116.93,127.45 c 0,0 2.2593,-0.34875 4.2456,-1.0374 1.849,-0.64105 3.6698,-3.5261 3.8899,-5.5338 0.0112,-0.1018 0.0192,-0.20358 0.0237,-0.3053 0.0657,-1.4813 -1.7273,-3.4654 -2.9411,-4.3825 -0.87789,-0.66333 -1.7696,-1.2185 -2.6453,-1.8355 -0.59284,-0.41768 -1.5076,-1.1587 -2.0677,-1.6208 -1.046,-0.86299 -2.1478,-1.7881 -2.9724,-2.4606 -0.60581,-0.49409 -1.6678,-1.1961 -2.4091,-1.4409 -0.94539,-0.31226 -2.2342,-0.58163 -3.4614,-0.47433 -1.0198,0.0892 -2.5369,0.87419 -3.407,1.4272 -0.96199,0.61138 -1.695,1.3115 -2.1201,2.5801 -0.36607,1.0925 -0.4418,2.9863 -0.50012,4.1401 -0.11013,2.1789 -0.20314,4.6098 -0.44694,6.3629 -0.17058,1.2267 -1.0977,3.0709 -1.291,4.2947 -0.0814,0.51539 -0.12501,1.0688 -0.11367,1.6145 0.0434,2.0878 3.4038,4.2698 5.6156,4.2468 0.98357,-0.0102 2.012,-0.26137 3.1048,-0.93469 0.69248,-0.4267 1.677,-1.317 2.3281,-1.8058 1.5271,-1.1465 2.9692,-1.8994 3.94,-2.3391 0.66629,-0.30179 1.2282,-0.49559 1.2282,-0.49559 z"
         id="path76" /></g></g><g
     aria-label="Daniel Dogs"
     id="text1149"
     style="font-weight:900;font-size:156.619px;font-family:Raleway;-inkscape-font-specification:'Raleway Heavy';fill:#fe7f4c;stroke-width:15.6762"
     transform="matrix(0.05583612,0,0,0.05583612,3.8174363,0.83741904)"><path
       d="M 299.18489,147.10062 V 35.901124 h 42.75699 q 18.48104,0 30.85394,7.517712 12.52953,7.361093 18.79429,20.047233 6.42137,12.52952 6.42137,27.878182 0,16.914849 -7.04785,29.444369 -6.89124,12.52952 -19.57738,19.42076 -12.52952,6.89124 -29.44437,6.89124 z m 67.81603,-55.756369 q 0,-8.614045 -2.97576,-15.035424 -2.97576,-6.577998 -8.61404,-10.180235 -5.63829,-3.602237 -13.46924,-3.602237 H 329.7256 v 57.949035 h 12.21628 q 7.98757,0 13.46924,-3.75886 5.63828,-3.75886 8.61404,-10.33685 2.97576,-6.734622 2.97576,-15.035429 z"
       id="path1532" /><path
       d="m 403.49318,122.19819 q 0,-8.3008 4.54195,-14.56556 4.54195,-6.42138 12.52952,-10.023619 8.14419,-3.602237 18.48104,-3.602237 4.85519,0 9.0839,0.783095 4.38534,0.783095 7.51772,2.349285 V 94.63325 q 0,-5.794903 -3.44562,-8.614045 -3.289,-2.819142 -10.80671,-2.819142 -6.89124,0 -12.99938,2.349285 -5.95152,2.192666 -12.52952,6.577998 l -8.61404,-18.481042 q 8.3008,-5.325046 17.3847,-7.83095 9.24053,-2.662523 19.734,-2.662523 19.57737,0 30.22747,8.927283 10.80671,8.770664 10.80671,26.155373 v 15.975143 q 0,4.22871 1.25295,5.95152 1.25295,1.56619 4.38533,1.87943 v 25.05904 q -3.60224,0.78309 -6.89123,1.09633 -3.13238,0.46986 -5.63829,0.46986 -7.98757,0 -12.21628,-2.81915 -4.07209,-2.97576 -5.32505,-8.61404 l -0.62647,-2.97576 q -5.48167,7.04785 -12.68614,10.80671 -7.20448,3.60224 -15.34866,3.60224 -8.14419,0 -14.72219,-3.44562 -6.578,-3.44562 -10.33685,-9.39714 -3.75886,-6.10814 -3.75886,-13.62586 z m 48.23865,2.03605 q 1.72281,-1.25295 2.81914,-2.66252 1.09634,-1.56619 1.09634,-3.13238 v -6.10814 q -2.50591,-0.93972 -5.79491,-1.56619 -3.13238,-0.62648 -5.63828,-0.62648 -5.32505,0 -9.0839,2.66252 -3.60224,2.66253 -3.60224,6.73462 0,2.19267 1.25295,4.0721 1.25295,1.7228 3.44562,2.81914 2.19267,0.93971 5.01181,0.93971 2.66252,0 5.48166,-0.78309 2.97576,-0.93972 5.01181,-2.34929 z"
       id="path1534" /><path
       d="m 584.7015,147.10062 h -29.75761 v -46.35923 q 0,-6.10814 -2.81914,-8.770663 -2.66252,-2.819142 -6.26476,-2.819142 -2.50591,0 -5.32505,1.56619 -2.81914,1.409571 -5.16842,4.072094 -2.34929,2.662523 -3.75886,6.108141 v 46.20261 H 501.85005 V 64.719021 h 26.78185 v 12.216282 q 2.97576,-4.541951 7.51771,-7.517712 4.54195,-3.13238 10.49347,-4.69857 5.95153,-1.56619 12.99938,-1.56619 8.45743,0 13.46924,2.975761 5.0118,2.975761 7.51771,7.674331 2.5059,4.69857 3.289,9.866997 0.78309,5.011808 0.78309,9.240521 z"
       id="path1536" /><path
       d="M 599.11052,147.10062 V 64.719021 h 29.75761 v 82.381599 z m 0,-89.272835 V 32.768744 h 29.75761 v 25.059041 z"
       id="path1538" /><path
       d="m 684.46775,148.66681 q -10.80672,0 -19.26414,-3.289 -8.45743,-3.44562 -14.25233,-9.24052 -5.63829,-5.79491 -8.61405,-13.31262 -2.97576,-7.51771 -2.97576,-15.81852 0,-11.903043 5.16843,-21.77004 5.16843,-10.023616 15.19204,-15.975138 10.02362,-6.108141 24.74581,-6.108141 14.72218,0 24.7458,5.951522 10.02361,5.951522 15.19204,15.6619 5.16843,9.710378 5.16843,21.143567 0,2.34928 -0.31324,4.85519 -0.15662,2.34928 -0.46986,4.22871 h -57.79241 q 0.31324,4.38533 2.34929,7.20447 2.19266,2.66253 5.32504,3.91548 3.289,1.25295 6.73462,1.25295 4.85519,0 9.0839,-2.19266 4.38533,-2.19267 5.79491,-6.10815 l 25.21565,7.20448 q -3.28899,6.578 -9.24052,11.58981 -5.7949,5.0118 -13.78247,7.98756 -7.98757,2.81915 -18.01118,2.81915 z M 670.37204,97.139154 h 27.2517 q -0.46986,-4.072094 -2.34928,-6.891236 -1.72281,-2.819142 -4.69857,-4.385332 -2.81915,-1.56619 -6.578,-1.56619 -3.75886,0 -6.73462,1.56619 -2.81914,1.56619 -4.69857,4.385332 -1.72281,2.819142 -2.19266,6.891236 z"
       id="path1540" /><path
       d="m 738.65781,32.768744 h 29.75761 v 81.598496 q 0,4.54196 1.87943,7.04786 2.03604,2.34928 5.7949,2.34928 1.87943,0 4.07209,-0.62647 2.19267,-0.62648 4.0721,-1.72281 l 3.75885,21.92666 q -5.32504,2.5059 -12.05966,3.91548 -6.578,1.40957 -12.52952,1.40957 -11.90304,0 -18.32442,-6.10814 -6.42138,-6.26476 -6.42138,-17.69795 z"
       id="path1542" /><path
       d="M 828.55696,147.10062 V 35.901124 h 42.75699 q 18.48104,0 30.85395,7.517712 12.52952,7.361093 18.79428,20.047233 6.42137,12.52952 6.42137,27.878182 0,16.914849 -7.04785,29.444369 -6.89124,12.52952 -19.57738,19.42076 -12.52952,6.89124 -29.44437,6.89124 z m 67.81603,-55.756369 q 0,-8.614045 -2.97576,-15.035424 -2.97576,-6.577998 -8.61404,-10.180235 -5.63829,-3.602237 -13.46924,-3.602237 h -12.21628 v 57.949035 h 12.21628 q 7.98757,0 13.46924,-3.75886 5.63828,-3.75886 8.61404,-10.33685 2.97576,-6.734622 2.97576,-15.035429 z"
       id="path1544" /><path
       d="m 979.2244,148.66681 q -10.96333,0 -19.42076,-3.44562 -8.45742,-3.44562 -14.25233,-9.39714 -5.63828,-6.10814 -8.61404,-13.78247 -2.81914,-7.67434 -2.81914,-16.13176 0,-8.457428 2.81914,-16.131759 2.97576,-7.83095 8.61404,-13.782472 5.79491,-5.951522 14.25233,-9.39714 8.45743,-3.445618 19.42076,-3.445618 11.11995,0 19.42075,3.445618 8.45745,3.445618 14.09575,9.39714 5.7949,5.951522 8.614,13.782472 2.9758,7.674331 2.9758,16.131759 0,8.45742 -2.9758,16.13176 -2.8191,7.67433 -8.614,13.78247 -5.6383,5.95152 -14.09575,9.39714 -8.3008,3.44562 -19.42075,3.44562 z m -14.56557,-42.75699 q 0,5.48166 1.87943,9.55376 1.87943,3.91547 5.16843,6.10814 3.289,2.03605 7.51771,2.03605 4.22871,0 7.51771,-2.03605 3.289,-2.19267 5.16843,-6.10814 1.87943,-4.0721 1.87943,-9.55376 0,-5.48167 -1.87943,-9.397142 -1.87943,-4.072094 -5.16843,-6.108141 -3.289,-2.192666 -7.51771,-2.192666 -4.22871,0 -7.51771,2.192666 -3.289,2.036047 -5.16843,6.108141 -1.87943,3.915472 -1.87943,9.397142 z"
       id="path1546" /><path
       d="m 1066.4612,147.10062 q -7.9875,0 -14.7221,-3.13238 -6.578,-3.13238 -11.2766,-8.77067 -4.6986,-5.63828 -7.3611,-13.15599 -2.5059,-7.51772 -2.5059,-16.28838 0,-9.240522 2.8191,-16.914853 2.8192,-7.83095 7.831,-13.625853 5.1684,-5.794903 12.2163,-8.927283 7.0478,-3.13238 15.5052,-3.13238 8.7707,0 15.5053,3.602237 6.8913,3.445618 10.8067,10.180235 V 64.719021 h 25.8422 V 139.5829 q 0,12.84276 -6.2648,22.39652 -6.2647,9.55376 -17.5413,14.72219 -11.2766,5.32504 -26.312,5.32504 -12.9994,0 -22.8664,-4.07209 -9.7104,-4.07209 -17.2281,-11.74643 l 15.6619,-16.28837 q 4.542,4.22871 10.8067,7.04785 6.4214,2.97576 13.6259,2.97576 5.4817,0 10.0236,-2.03604 4.6986,-2.03605 7.5177,-6.578 2.8192,-4.38533 2.8192,-11.74643 v -5.32504 q -3.4457,6.42138 -10.3369,9.71038 -6.7346,3.13238 -14.5656,3.13238 z m 10.6501,-23.49285 q 2.1927,0 4.0721,-0.46986 2.0361,-0.62648 3.7589,-1.56619 1.7228,-1.09633 3.289,-2.66252 1.7228,-1.72281 3.1324,-3.75886 v -14.72219 q -1.4096,-3.758853 -3.9155,-6.421376 -2.5059,-2.819142 -5.4817,-4.228713 -2.9757,-1.56619 -6.1081,-1.56619 -3.1324,0 -5.9515,1.409571 -2.6626,1.409571 -4.6986,4.072094 -2.0361,2.505904 -3.1324,5.794903 -1.0963,3.289001 -1.0963,7.047851 0,3.75886 1.0963,6.89124 1.253,3.13238 3.4456,5.48167 2.1927,2.19266 5.1685,3.44561 2.9757,1.25296 6.4213,1.25296 z"
       id="path1548" /><path
       d="m 1169.2032,148.66681 q -10.8067,0 -21.3002,-3.44562 -10.3368,-3.60224 -17.5413,-10.33686 l 10.1802,-18.32442 q 7.6744,5.01181 14.7222,7.83095 7.2045,2.81914 12.9994,2.81914 3.289,0 4.8552,-0.78309 1.5662,-0.93972 1.5662,-2.97576 0,-1.40957 -1.0964,-2.34929 -1.0963,-0.93971 -3.6022,-1.87943 -2.3493,-0.93971 -6.1081,-2.03604 -9.7104,-3.44562 -16.2884,-6.42138 -6.4214,-2.97576 -9.7104,-7.20448 -3.1324,-4.385329 -3.1324,-11.589803 0,-8.457426 4.2287,-14.878805 4.2288,-6.577998 12.0597,-10.336854 7.9876,-3.758856 19.1075,-3.758856 8.3008,0 16.6016,2.662523 8.4575,2.505904 16.2884,9.240521 l -11.2766,18.167804 q -7.8309,-4.855189 -13.3126,-6.891236 -5.325,-2.036047 -9.5537,-2.036047 -2.0361,0 -3.6023,0.469857 -1.4095,0.469857 -2.1926,1.409571 -0.7831,0.939714 -0.7831,2.505904 0,1.56619 1.0963,2.662523 1.0963,0.939714 3.4456,1.879428 2.3493,0.783095 5.9515,1.879428 10.6501,3.13238 17.3848,6.421382 6.7346,3.13238 9.867,7.67433 3.289,4.54195 3.289,11.90304 0,12.99938 -9.2406,20.36047 -9.0839,7.3611 -24.9024,7.3611 z"
       id="path1550" /><g
       aria-label="Hotel para Cachorro"
       id="text1602"
       style="font-size:73.8023px;stroke-width:7.38696"
       transform="matrix(1.0172137,0,0,1.0172137,-5.1534473,2.4452174)"><path
         d="M 344.47413,166.83576 V 219.2354 H 332.37055 V 197.75893 H 311.4845 v 21.47647 h -12.10358 v -52.39964 h 12.10358 v 20.29564 h 20.88605 v -20.29564 z"
         style="font-weight:800;-inkscape-font-specification:'Raleway Ultra-Bold'"
         id="path1604" /><path
         d="m 371.33809,219.97342 q -4.94476,0 -8.85628,-1.62365 -3.83772,-1.62365 -6.4946,-4.42814 -2.65689,-2.80449 -4.05913,-6.4208 -1.32844,-3.61631 -1.32844,-7.60164 0,-4.05912 1.32844,-7.67543 1.40224,-3.61632 4.05913,-6.4208 2.65688,-2.80449 6.4946,-4.42814 3.91152,-1.62365 8.85628,-1.62365 4.94475,0 8.78247,1.62365 3.83772,1.62365 6.4946,4.42814 2.65688,2.80448 4.05913,6.4208 1.40224,3.61631 1.40224,7.67543 0,3.98533 -1.40224,7.60164 -1.40225,3.61631 -4.05913,6.4208 -2.65688,2.80449 -6.4946,4.42814 -3.83772,1.62365 -8.78247,1.62365 z m -8.63487,-20.07423 q 0,3.0259 1.10703,5.31377 1.18084,2.28787 3.0997,3.54251 1.91886,1.25464 4.42814,1.25464 2.43547,0 4.35433,-1.25464 1.99266,-1.32844 3.0997,-3.61631 1.10703,-2.28787 1.10703,-5.23997 0,-3.02589 -1.10703,-5.31376 -1.10704,-2.28787 -3.0997,-3.54251 -1.91886,-1.25464 -4.35433,-1.25464 -2.50928,0 -4.42814,1.25464 -1.91886,1.25464 -3.0997,3.54251 -1.10703,2.28787 -1.10703,5.31376 z"
         style="font-weight:800;-inkscape-font-specification:'Raleway Ultra-Bold'"
         id="path1606" /><path
         d="m 422.40937,217.16893 q -1.62365,0.66422 -3.61631,1.32844 -1.91886,0.66423 -4.05913,1.03324 -2.14027,0.44281 -4.20673,0.44281 -2.95209,0 -5.46137,-0.95943 -2.43548,-1.03323 -3.91152,-3.3211 -1.40225,-2.28787 -1.40225,-6.05179 v -20.22183 h -4.94475 v -8.93008 h 4.94475 v -12.32498 h 11.80837 v 12.32498 h 7.89685 v 8.93008 h -7.89685 v 16.1627 q 0,1.91886 0.95943,2.80449 0.95943,0.81182 2.43548,0.81182 1.25464,0 2.65688,-0.44281 1.47605,-0.44281 2.50928,-0.95943 z"
         style="font-weight:800;-inkscape-font-specification:'Raleway Ultra-Bold'"
         id="path1608" /><path
         d="m 445.06666,219.97342 q -4.94476,0 -8.78248,-1.54985 -3.83772,-1.62365 -6.5684,-4.35433 -2.65688,-2.73069 -4.05913,-6.2732 -1.40224,-3.61631 -1.40224,-7.52783 0,-5.60898 2.43548,-10.18472 2.50927,-4.64955 7.15882,-7.45403 4.64954,-2.87829 11.21795,-2.87829 6.5684,0 11.14415,2.80448 4.64954,2.80449 7.08502,7.38023 2.43547,4.50194 2.43547,9.81571 0,1.03323 -0.1476,2.06646 -0.0738,0.95943 -0.14761,1.69746 H 436.8008 q 0.22141,2.58308 1.40224,4.35433 1.25464,1.77126 3.1735,2.73069 1.91886,0.88563 4.05913,0.88563 2.65688,0 4.94475,-1.25464 2.36168,-1.25464 3.2473,-3.39491 l 10.03712,2.80449 q -1.47605,3.02589 -4.20673,5.38757 -2.65689,2.28787 -6.347,3.61631 -3.61631,1.32844 -8.04445,1.32844 z m -8.56107,-23.69054 h 16.82693 q -0.29521,-2.43547 -1.40225,-4.20673 -1.10703,-1.84506 -2.95209,-2.80449 -1.84506,-1.03323 -4.05913,-1.03323 -2.28787,0 -4.13293,1.03323 -1.77125,0.95943 -2.87829,2.80449 -1.10703,1.77126 -1.40224,4.20673 z"
         style="font-weight:800;-inkscape-font-specification:'Raleway Ultra-Bold'"
         id="path1610" /><path
         d="m 470.97128,165.35972 h 11.80836 v 40.07465 q 0,2.43547 0.88563,3.46871 0.88563,1.03323 2.50928,1.03323 1.10703,0 2.21407,-0.29521 1.18083,-0.36901 2.06646,-0.81183 l 1.54985,8.85628 q -2.21407,1.03323 -5.09236,1.62365 -2.87829,0.59042 -5.38757,0.59042 -5.01855,0 -7.82304,-2.65688 -2.73068,-2.73069 -2.73068,-7.67544 z"
         style="font-weight:800;-inkscape-font-specification:'Raleway Ultra-Bold'"
         id="path1612" /><path
         d="m 535.69584,219.97342 q -4.35433,0 -7.60163,-1.84506 -3.2473,-1.91886 -5.09236,-5.16616 v 21.99309 h -11.80837 v -54.4661 H 521.452 v 6.2732 q 2.14027,-3.32111 5.38757,-5.16617 3.2473,-1.84505 7.60163,-1.84505 3.91153,0 7.15883,1.54985 3.3211,1.54984 5.75658,4.28053 2.43547,2.73068 3.76391,6.347 1.32845,3.61631 1.32845,7.82304 0,5.75658 -2.14027,10.33232 -2.14027,4.57574 -5.97799,7.23263 -3.76391,2.65688 -8.63487,2.65688 z m -3.98532,-9.96331 q 1.91886,0 3.46871,-0.81183 1.62365,-0.88562 2.80448,-2.28787 1.18084,-1.40224 1.77126,-3.2473 0.66422,-1.91886 0.66422,-3.98532 0,-2.14027 -0.73802,-3.91152 -0.66422,-1.77126 -1.91886,-3.0997 -1.25464,-1.40224 -2.95209,-2.14027 -1.69746,-0.73802 -3.69012,-0.73802 -1.18084,0 -2.43547,0.36901 -1.18084,0.36901 -2.28788,1.10704 -1.03323,0.66422 -1.91886,1.62365 -0.88562,0.95943 -1.47604,2.21407 v 7.97064 q 0.81182,1.99267 2.14026,3.54251 1.32845,1.54985 3.0259,2.50928 1.69745,0.88563 3.54251,0.88563 z"
         style="font-weight:800;-inkscape-font-specification:'Raleway Ultra-Bold'"
         id="path1614" /><path
         d="m 555.99142,207.64844 q 0,-3.83772 2.14026,-6.71601 2.14027,-2.87829 5.90419,-4.50194 3.76392,-1.69746 8.63487,-1.69746 2.36167,0 4.64954,0.44282 2.28787,0.36901 3.98533,1.10703 v -1.69745 q 0,-3.1735 -1.91886,-4.87095 -1.91886,-1.69746 -5.83038,-1.69746 -3.24731,0 -6.1256,1.10704 -2.80448,1.10703 -5.97798,3.1735 l -3.54251,-7.52784 q 3.83772,-2.50927 7.97065,-3.76391 4.20673,-1.25464 8.85627,-1.25464 8.70867,0 13.50582,4.20673 4.87095,4.13293 4.87095,12.02977 v 10.11092 q 0,1.77125 0.51662,2.50928 0.59042,0.66422 1.99266,0.81182 v 9.81571 q -1.47604,0.29521 -2.80448,0.44281 -1.25464,0.14761 -2.21407,0.14761 -3.32111,0 -5.09236,-1.32845 -1.69746,-1.32844 -2.14027,-3.61631 l -0.22141,-1.69745 q -2.58308,3.3211 -6.19939,5.09236 -3.54251,1.69745 -7.45403,1.69745 -3.83772,0 -6.93742,-1.62365 -3.02589,-1.62365 -4.79715,-4.42814 -1.77125,-2.80449 -1.77125,-6.27319 z m 23.46913,1.47604 q 0.81182,-0.66422 1.32844,-1.47604 0.51662,-0.81183 0.51662,-1.54985 v -3.46871 q -1.47605,-0.59042 -3.32111,-0.88563 -1.77125,-0.36901 -3.3211,-0.36901 -3.2473,0 -5.38757,1.47605 -2.14026,1.40224 -2.14026,3.76391 0,1.32845 0.73802,2.43548 0.73802,1.10703 1.99266,1.77126 1.32844,0.66422 3.0997,0.66422 1.77125,0 3.54251,-0.66422 1.77125,-0.66423 2.95209,-1.69746 z"
         style="font-weight:800;-inkscape-font-specification:'Raleway Ultra-Bold'"
         id="path1616" /><path
         d="m 626.25126,190.60011 q -4.28053,0 -7.74924,1.40224 -3.46871,1.32844 -5.01856,3.98532 v 23.24773 h -11.80837 v -38.74621 h 10.84894 v 7.82304 q 1.99266,-3.91152 5.16616,-6.12559 3.1735,-2.21407 6.64221,-2.28787 0.81182,0 1.18084,0 0.44281,0 0.73802,0.0738 z"
         style="font-weight:800;-inkscape-font-specification:'Raleway Ultra-Bold'"
         id="path1618" /><path
         d="m 628.46533,207.64844 q 0,-3.83772 2.14026,-6.71601 2.14027,-2.87829 5.90419,-4.50194 3.76391,-1.69746 8.63487,-1.69746 2.36167,0 4.64954,0.44282 2.28787,0.36901 3.98532,1.10703 v -1.69745 q 0,-3.1735 -1.91886,-4.87095 -1.91886,-1.69746 -5.83038,-1.69746 -3.2473,0 -6.12559,1.10704 -2.80449,1.10703 -5.97798,3.1735 l -3.54251,-7.52784 q 3.83771,-2.50927 7.97064,-3.76391 4.20673,-1.25464 8.85628,-1.25464 8.70867,0 13.50582,4.20673 4.87095,4.13293 4.87095,12.02977 v 10.11092 q 0,1.77125 0.51662,2.50928 0.59042,0.66422 1.99266,0.81182 v 9.81571 q -1.47605,0.29521 -2.80449,0.44281 -1.25464,0.14761 -2.21407,0.14761 -3.3211,0 -5.09235,-1.32845 -1.69746,-1.32844 -2.14027,-3.61631 l -0.22141,-1.69745 q -2.58308,3.3211 -6.19939,5.09236 -3.54251,1.69745 -7.45403,1.69745 -3.83772,0 -6.93742,-1.62365 -3.02589,-1.62365 -4.79715,-4.42814 -1.77125,-2.80449 -1.77125,-6.27319 z m 23.46913,1.47604 q 0.81182,-0.66422 1.32844,-1.47604 0.51661,-0.81183 0.51661,-1.54985 v -3.46871 q -1.47604,-0.59042 -3.3211,-0.88563 -1.77125,-0.36901 -3.3211,-0.36901 -3.2473,0 -5.38757,1.47605 -2.14027,1.40224 -2.14027,3.76391 0,1.32845 0.73803,2.43548 0.73802,1.10703 1.99266,1.77126 1.32844,0.66422 3.09969,0.66422 1.77126,0 3.54251,-0.66422 1.77126,-0.66423 2.9521,-1.69746 z"
         style="font-weight:800;-inkscape-font-specification:'Raleway Ultra-Bold'"
         id="path1620" /><path
         d="m 689.27843,192.59277 q 0,-4.79715 1.77125,-9.37289 1.77126,-4.64955 5.16616,-8.41347 3.39491,-3.76391 8.26586,-5.97798 4.87095,-2.28787 11.07035,-2.28787 7.38023,0 12.7678,3.17349 5.46137,3.1735 8.11825,8.26586 l -9.29909,6.4946 q -1.18084,-2.80448 -3.1735,-4.35433 -1.91886,-1.54985 -4.28053,-2.14027 -2.28788,-0.66422 -4.42814,-0.66422 -3.46871,0 -6.05179,1.40224 -2.58308,1.32845 -4.28053,3.61632 -1.69746,2.28787 -2.50928,5.09236 -0.81183,2.80448 -0.81183,5.60897 0,3.0997 0.95943,5.97799 0.95943,2.87829 2.73069,5.09236 1.84506,2.21406 4.42814,3.54251 2.58308,1.25464 5.68277,1.25464 2.21407,0 4.50194,-0.73803 2.28787,-0.73802 4.20673,-2.28787 1.99267,-1.62365 3.0259,-4.20673 l 9.88951,5.83038 q -1.54985,3.83772 -5.09236,6.56841 -3.54251,2.73068 -8.04445,4.20673 -4.42814,1.40224 -8.78248,1.40224 -5.68277,0 -10.47992,-2.28787 -4.72335,-2.36167 -8.19206,-6.19939 -3.3949,-3.91153 -5.31376,-8.70867 -1.84506,-4.87096 -1.84506,-9.88951 z"
         style="font-weight:800;-inkscape-font-specification:'Raleway Ultra-Bold'"
         id="path1622" /><path
         d="m 739.68539,207.64844 q 0,-3.83772 2.14026,-6.71601 2.14027,-2.87829 5.90419,-4.50194 3.76392,-1.69746 8.63487,-1.69746 2.36167,0 4.64954,0.44282 2.28787,0.36901 3.98533,1.10703 v -1.69745 q 0,-3.1735 -1.91886,-4.87095 -1.91886,-1.69746 -5.83039,-1.69746 -3.2473,0 -6.12559,1.10704 -2.80448,1.10703 -5.97798,3.1735 l -3.54251,-7.52784 q 3.83772,-2.50927 7.97065,-3.76391 4.20673,-1.25464 8.85627,-1.25464 8.70867,0 13.50582,4.20673 4.87095,4.13293 4.87095,12.02977 v 10.11092 q 0,1.77125 0.51662,2.50928 0.59042,0.66422 1.99266,0.81182 v 9.81571 q -1.47604,0.29521 -2.80448,0.44281 -1.25464,0.14761 -2.21407,0.14761 -3.32111,0 -5.09236,-1.32845 -1.69746,-1.32844 -2.14027,-3.61631 l -0.22141,-1.69745 q -2.58308,3.3211 -6.19939,5.09236 -3.54251,1.69745 -7.45403,1.69745 -3.83772,0 -6.93742,-1.62365 -3.02589,-1.62365 -4.79715,-4.42814 -1.77125,-2.80449 -1.77125,-6.27319 z m 23.46913,1.47604 q 0.81182,-0.66422 1.32844,-1.47604 0.51662,-0.81183 0.51662,-1.54985 v -3.46871 q -1.47605,-0.59042 -3.32111,-0.88563 -1.77125,-0.36901 -3.3211,-0.36901 -3.2473,0 -5.38757,1.47605 -2.14027,1.40224 -2.14027,3.76391 0,1.32845 0.73803,2.43548 0.73802,1.10703 1.99266,1.77126 1.32844,0.66422 3.0997,0.66422 1.77125,0 3.54251,-0.66422 1.77125,-0.66423 2.95209,-1.69746 z"
         style="font-weight:800;-inkscape-font-specification:'Raleway Ultra-Bold'"
         id="path1624" /><path
         d="m 803.89341,219.97342 q -4.94475,0 -8.78247,-1.62365 -3.83772,-1.62365 -6.56841,-4.42814 -2.65688,-2.80449 -4.05913,-6.4208 -1.40224,-3.61631 -1.40224,-7.67544 0,-5.31376 2.43548,-9.88951 2.50928,-4.57574 7.15882,-7.38023 4.64954,-2.80448 11.21795,-2.80448 6.64221,0 11.21795,2.87829 4.64954,2.80448 6.93742,7.38023 l -11.51316,3.4687 q -1.10704,-1.77125 -2.87829,-2.73068 -1.69746,-0.95943 -3.83772,-0.95943 -2.43548,0 -4.42814,1.25464 -1.91886,1.25464 -3.0997,3.46871 -1.10703,2.21407 -1.10703,5.31376 0,3.0259 1.18084,5.31377 1.18083,2.28787 3.09969,3.61631 1.91886,1.25464 4.35434,1.25464 1.47604,0 2.73068,-0.44281 1.32844,-0.51662 2.36168,-1.40225 1.10703,-0.88563 1.69745,-1.99266 l 11.51316,3.54251 q -1.40225,2.95209 -4.05913,5.31377 -2.58308,2.28787 -6.12559,3.61631 -3.54251,1.32844 -8.04445,1.32844 z"
         style="font-weight:800;-inkscape-font-specification:'Raleway Ultra-Bold'"
         id="path1626" /><path
         d="m 864.78029,219.2354 h -11.80837 v -21.77168 q 0,-3.76392 -1.54985,-5.53517 -1.47604,-1.77126 -3.98532,-1.77126 -1.32844,0 -3.0259,0.88563 -1.62365,0.81182 -3.02589,2.36167 -1.40225,1.54985 -2.14027,3.61632 v 22.21449 h -11.80837 v -53.87568 h 11.80837 v 21.62407 q 2.14027,-3.46871 5.60898,-5.31376 3.54251,-1.91886 7.74924,-1.91886 3.98532,0 6.347,1.32844 2.43547,1.32844 3.69011,3.54251 1.25464,2.14027 1.69745,4.72335 0.44282,2.58308 0.44282,5.09235 z"
         style="font-weight:800;-inkscape-font-specification:'Raleway Ultra-Bold'"
         id="path1628" /><path
         d="m 891.05389,219.97342 q -4.94475,0 -8.85628,-1.62365 -3.83771,-1.62365 -6.4946,-4.42814 -2.65688,-2.80449 -4.05912,-6.4208 -1.32845,-3.61631 -1.32845,-7.60164 0,-4.05912 1.32845,-7.67543 1.40224,-3.61632 4.05912,-6.4208 2.65689,-2.80449 6.4946,-4.42814 3.91153,-1.62365 8.85628,-1.62365 4.94475,0 8.78247,1.62365 3.83772,1.62365 6.49461,4.42814 2.65688,2.80448 4.05912,6.4208 1.40225,3.61631 1.40225,7.67543 0,3.98533 -1.40225,7.60164 -1.40224,3.61631 -4.05912,6.4208 -2.65689,2.80449 -6.49461,4.42814 -3.83772,1.62365 -8.78247,1.62365 z m -8.63487,-20.07423 q 0,3.0259 1.10704,5.31377 1.18083,2.28787 3.09969,3.54251 1.91886,1.25464 4.42814,1.25464 2.43548,0 4.35434,-1.25464 1.99266,-1.32844 3.09969,-3.61631 1.10704,-2.28787 1.10704,-5.23997 0,-3.02589 -1.10704,-5.31376 -1.10703,-2.28787 -3.09969,-3.54251 -1.91886,-1.25464 -4.35434,-1.25464 -2.50928,0 -4.42814,1.25464 -1.91886,1.25464 -3.09969,3.54251 -1.10704,2.28787 -1.10704,5.31376 z"
         style="font-weight:800;-inkscape-font-specification:'Raleway Ultra-Bold'"
         id="path1630" /><path
         d="m 942.19889,190.60011 q -4.28053,0 -7.74924,1.40224 -3.46871,1.32844 -5.01856,3.98532 v 23.24773 h -11.80836 v -38.74621 h 10.84893 v 7.82304 q 1.99267,-3.91152 5.16616,-6.12559 3.1735,-2.21407 6.64221,-2.28787 0.81183,0 1.18084,0 0.44281,0 0.73802,0.0738 z"
         style="font-weight:800;-inkscape-font-specification:'Raleway Ultra-Bold'"
         id="path1632" /><path
         d="m 971.71983,190.60011 q -4.28054,0 -7.74925,1.40224 -3.4687,1.32844 -5.01855,3.98532 v 23.24773 h -11.80837 v -38.74621 h 10.84894 v 7.82304 q 1.99266,-3.91152 5.16616,-6.12559 3.1735,-2.21407 6.64221,-2.28787 0.81182,0 1.18083,0 0.44282,0 0.73803,0.0738 z"
         style="font-weight:800;-inkscape-font-specification:'Raleway Ultra-Bold'"
         id="path1634" /><path
         d="m 994.81988,219.97342 q -4.94475,0 -8.85627,-1.62365 -3.83772,-1.62365 -6.49461,-4.42814 -2.65688,-2.80449 -4.05912,-6.4208 -1.32844,-3.61631 -1.32844,-7.60164 0,-4.05912 1.32844,-7.67543 1.40224,-3.61632 4.05912,-6.4208 2.65689,-2.80449 6.49461,-4.42814 3.91152,-1.62365 8.85627,-1.62365 4.94476,0 8.78252,1.62365 3.8377,1.62365 6.4946,4.42814 2.6568,2.80448 4.0591,6.4208 1.4022,3.61631 1.4022,7.67543 0,3.98533 -1.4022,7.60164 -1.4023,3.61631 -4.0591,6.4208 -2.6569,2.80449 -6.4946,4.42814 -3.83776,1.62365 -8.78252,1.62365 z m -8.63487,-20.07423 q 0,3.0259 1.10704,5.31377 1.18083,2.28787 3.09969,3.54251 1.91886,1.25464 4.42814,1.25464 2.43548,0 4.35434,-1.25464 1.99268,-1.32844 3.09968,-3.61631 1.107,-2.28787 1.107,-5.23997 0,-3.02589 -1.107,-5.31376 -1.107,-2.28787 -3.09968,-3.54251 -1.91886,-1.25464 -4.35434,-1.25464 -2.50928,0 -4.42814,1.25464 -1.91886,1.25464 -3.09969,3.54251 -1.10704,2.28787 -1.10704,5.31376 z"
         style="font-weight:800;-inkscape-font-specification:'Raleway Ultra-Bold'"
         id="path1636" /></g></g></svg>
