<?xml version="1.0" encoding="UTF-8" standalone="no"?>
<svg
   height="80"
   viewBox="0 -960 1920 1920"
   width="80"
   version="1.1"
   id="svg4"
   sodipodi:docname="dog-coin.svg"
   inkscape:version="1.2.2 (732a01da63, 2022-12-09)"
   xmlns:inkscape="http://www.inkscape.org/namespaces/inkscape"
   xmlns:sodipodi="http://sodipodi.sourceforge.net/DTD/sodipodi-0.dtd"
   xmlns="http://www.w3.org/2000/svg"
   xmlns:svg="http://www.w3.org/2000/svg">
  <defs
     id="defs8" />
  <sodipodi:namedview
     id="namedview6"
     pagecolor="#ffffff"
     bordercolor="#000000"
     borderopacity="0.25"
     inkscape:showpageshadow="2"
     inkscape:pageopacity="0.0"
     inkscape:pagecheckerboard="0"
     inkscape:deskcolor="#d1d1d1"
     showgrid="false"
     inkscape:zoom="5.18125"
     inkscape:cx="73.05187"
     inkscape:cy="47.864897"
     inkscape:window-width="1366"
     inkscape:window-height="697"
     inkscape:window-x="239"
     inkscape:window-y="1072"
     inkscape:window-maximized="1"
     inkscape:current-layer="svg4" />
  <path
     d="m 886.2645,617.34773 h 131.2183 V 505.0817 q 125.3857,-16.76533 201.2015,-83.10495 75.8136,-66.33743 75.8136,-183.70348 0,-104.97685 -59.7765,-177.14694 -59.7787,-72.167896 -212.8646,-133.405306 -128.30312,-49.569914 -182.97743,-88.207154 -54.6743,-38.63724 -54.6743,-104.2464 0,-64.15046 46.29164,-101.32899 46.28945,-37.17853 128.66614,-37.17853 67.06785,0 112.26385,31.7111 45.1981,31.7111 72.9005,89.30064 l 116.6378,-52.48734 q -32.8046,-76.54403 -95.1333,-124.65742 -62.3287,-48.11338 -143.9749,-56.13083 V -626.31122 H 890.63844 v 110.80732 q -110.80732,18.22404 -174.22951,86.74845 -63.4222,68.5244 -63.4222,164.02292 0,105.70511 63.78742,169.127308 63.78523,63.422195 194.27531,115.179081 143.61194,57.591731 197.92094,103.518141 54.3113,45.92642 54.3113,115.18127 0,70.71138 -55.7678,110.4421 -55.77,39.72854 -138.14445,39.72854 -80.91798,0 -143.97714,-47.01991 -63.05697,-47.0199 -89.30063,-132.31182 l -122.47045,43.73945 q 40.82421,102.05943 106.79642,162.20117 65.97439,60.14174 165.84685,85.65495 z m 68.5244,252.23007 q -180.05998,0 -339.70896,-68.88962 Q 455.43097,731.79855 336.60402,612.97379 217.77925,494.14684 148.88963,334.49786 80,174.84889 80,-5.211098 80,-186.7298 148.88963,-346.37877 217.77925,-506.02774 336.60402,-624.12425 455.43097,-742.22075 615.07994,-811.11037 774.72892,-880 954.7889,-880 q 181.5187,0 341.1677,68.88963 159.6489,68.88962 277.7455,186.98612 118.0965,118.09651 186.9861,277.74548 68.8896,159.64897 68.8896,341.167672 0,180.059988 -68.8896,339.708958 -68.8896,159.64898 -186.9861,278.47593 -118.0966,118.82476 -277.7455,187.71439 -159.649,68.88962 -341.1677,68.88962 z"
     id="path2"
     style="fill:#353535;fill-opacity:1;stroke-width:2.18697" />
</svg>
