<?xml version="1.0" encoding="UTF-8" standalone="no"?>
<svg
   height="80"
   viewBox="0 -960 1920 1920"
   width="80"
   version="1.1"
   id="svg4"
   sodipodi:docname="dog-coin-light.svg"
   inkscape:version="1.2.2 (732a01da63, 2022-12-09)"
   xmlns:inkscape="http://www.inkscape.org/namespaces/inkscape"
   xmlns:sodipodi="http://sodipodi.sourceforge.net/DTD/sodipodi-0.dtd"
   xmlns="http://www.w3.org/2000/svg"
   xmlns:svg="http://www.w3.org/2000/svg">
  <defs
     id="defs8" />
  <sodipodi:namedview
     id="namedview6"
     pagecolor="#ffffff"
     bordercolor="#000000"
     borderopacity="0.25"
     inkscape:showpageshadow="2"
     inkscape:pageopacity="0.0"
     inkscape:pagecheckerboard="0"
     inkscape:deskcolor="#d1d1d1"
     showgrid="false"
     inkscape:zoom="3.663697"
     inkscape:cx="42.716414"
     inkscape:cy="37.120974"
     inkscape:window-width="1366"
     inkscape:window-height="697"
     inkscape:window-x="239"
     inkscape:window-y="1072"
     inkscape:window-maximized="1"
     inkscape:current-layer="svg4" />
  <path
     d="M 886.39464,617.58942 H 1017.6342 V 505.30527 q 125.4059,-16.76804 201.2339,-83.11836 75.8258,-66.34814 75.8258,-183.73314 0,-104.9938 -59.7862,-177.17553 -59.7883,-72.179546 -212.8989,-133.426841 -128.3238,-49.577909 -183.00694,-88.221389 -54.68313,-38.64348 -54.68313,-104.26323 0,-64.16082 46.29912,-101.34534 46.29692,-37.18453 128.6869,-37.18453 67.07875,0 112.28195,31.71621 45.2055,31.71622 72.9123,89.31505 l 116.6566,-52.4958 q -32.8098,-76.55639 -95.1486,-124.67754 -62.3388,-48.12116 -143.9982,-56.13989 V -626.27027 H 890.76929 v 110.82521 q -110.82521,18.22698 -174.25764,86.76244 -63.43243,68.53546 -63.43243,164.0494 0,105.72218 63.79771,169.154608 63.79553,63.432433 194.30667,115.197672 143.6351,57.601024 197.9529,103.53485 54.3201,45.93383 54.3201,115.19986 0,70.72279 -55.7768,110.45993 -55.779,39.73495 -138.1668,39.73495 -80.93103,0 -144.00037,-47.02749 -63.06715,-47.0275 -89.31505,-132.33318 l -122.49022,43.7465 q 40.8308,102.07591 106.81366,162.22736 65.98504,60.15144 165.87362,85.66878 z m 68.53546,252.27079 q -180.08905,0 -339.76379,-68.90075 Q 455.49157,732.05871 336.64543,613.21477 217.80149,494.36864 148.90075,334.6939 80,175.01915 80,-5.0698969 80,-186.61789 148.90075,-346.29264 217.80149,-505.96738 336.64543,-624.08294 455.49157,-742.19851 615.16631,-811.09925 774.84105,-880 954.9301,-880 q 181.548,0 341.2227,68.90075 159.6748,68.90074 277.7904,187.01631 118.1155,118.11556 187.0163,277.7903 68.9007,159.67475 68.9007,341.2227431 0,180.0890469 -68.9007,339.7637969 -68.9008,159.67474 -187.0163,278.52087 -118.1156,118.84394 -277.7904,187.74469 -159.6747,68.90075 -341.2227,68.90075 z"
     id="path2"
     style="fill:#f7ecdf;fill-opacity:1;stroke-width:2.18733" />
</svg>
