<?xml version="1.0" encoding="UTF-8" standalone="no"?>
<svg
   height="80"
   viewBox="0 -960 1920 1920"
   width="80"
   version="1.1"
   id="svg4"
   sodipodi:docname="dog-coin-orange.svg"
   inkscape:version="1.2.2 (732a01da63, 2022-12-09)"
   xmlns:inkscape="http://www.inkscape.org/namespaces/inkscape"
   xmlns:sodipodi="http://sodipodi.sourceforge.net/DTD/sodipodi-0.dtd"
   xmlns="http://www.w3.org/2000/svg"
   xmlns:svg="http://www.w3.org/2000/svg">
  <defs
     id="defs8" />
  <sodipodi:namedview
     id="namedview6"
     pagecolor="#ffffff"
     bordercolor="#000000"
     borderopacity="0.25"
     inkscape:showpageshadow="2"
     inkscape:pageopacity="0.0"
     inkscape:pagecheckerboard="0"
     inkscape:deskcolor="#d1d1d1"
     showgrid="false"
     inkscape:zoom="3.663697"
     inkscape:cx="36.984499"
     inkscape:cy="59.502737"
     inkscape:window-width="1366"
     inkscape:window-height="697"
     inkscape:window-x="239"
     inkscape:window-y="1072"
     inkscape:window-maximized="1"
     inkscape:current-layer="svg4" />
  <path
     d="M 883.37583,611.98306 H 1014.124 V 500.11925 q 124.9365,-16.70526 200.4806,-82.8072 75.542,-66.09975 75.542,-183.04531 0,-104.60075 -59.5624,-176.51226 -59.5645,-71.909336 -212.1019,-132.927345 -127.84341,-49.392315 -182.32183,-87.891125 -54.47842,-38.49881 -54.47842,-103.87291 0,-63.92062 46.12579,-100.96595 46.12361,-37.04533 128.20516,-37.04533 66.8276,0 111.8616,31.59749 45.0362,31.59748 72.6394,88.98069 l 116.2199,-52.29928 q -32.6871,-76.26979 -94.7925,-124.2108 -62.1054,-47.94101 -143.4591,-55.92973 V -627.22013 H 887.7341 v 110.41032 q -110.41032,18.15875 -173.60529,86.43764 -63.19497,68.2789 -63.19497,163.43527 0,105.32639 63.55889,168.521361 63.5567,63.194968 193.57926,114.766419 143.09741,57.385389 197.21191,103.14726 54.1167,45.76188 54.1167,114.7686 0,70.45803 -55.568,110.04641 -55.5702,39.5862 -137.64957,39.5862 -80.62806,0 -143.46129,-46.85144 -62.83106,-46.85144 -88.9807,-131.83778 l -122.03166,43.58274 q 40.67795,101.69377 106.41379,161.62004 65.73802,59.92626 165.25266,85.34807 z m 68.27889,251.32639 q -179.41487,0 -338.49185,-68.64281 Q 454.08588,726.02383 335.68466,607.62479 217.28562,489.22357 148.64281,330.14658 80,171.06959 80,-8.3452769 80,-189.21363 148.64281,-348.29062 217.28562,-507.36761 335.68466,-625.04099 454.08588,-742.71438 613.16287,-811.35719 772.23985,-880 951.65472,-880 q 180.86838,0 339.94538,68.64281 159.077,68.64281 276.7503,186.3162 117.6734,117.67338 186.3162,276.75037 68.6428,159.07699 68.6428,339.9453431 0,179.4148669 -68.6428,338.4918569 -68.6428,159.07699 -186.3162,277.47821 -117.6733,118.39904 -276.7503,187.04185 -159.077,68.64281 -339.94538,68.64281 z"
     id="path2"
     style="fill:#fe7f4c;fill-opacity:1;stroke-width:2.17914" />
</svg>
